<svg width="47" height="48" viewBox="0 0 47 48" fill="none" xmlns="http://www.w3.org/2000/svg">
<g clip-path="url(#clip0_2_527)">
<path d="M45.4654 17.8319L45.3758 17.2263L45.3192 17.0402L45.1864 16.5959L45.0093 16.3141L44.7981 16.0502L44.5157 15.7891L44.1964 15.5549L43.877 15.3207L43.5582 15.0865L43.2394 14.8529L42.92 14.6187L42.6007 14.3845L42.2819 14.1503L41.9625 13.9166L41.6437 13.6824L41.3243 13.4482L41.005 13.214L40.6862 12.9804L40.3674 12.7462L40.048 12.512L39.7286 12.2778L39.4098 12.0441L39.0905 11.8099L38.7717 11.5757L38.4523 11.3415L38.1329 11.1079L37.8141 10.8737L37.4953 10.6395L37.195 10.4731L36.907 10.3633L36.6476 10.3291H36.3153L35.9607 10.3857L35.606 10.4423L35.2508 10.4989L34.8961 10.5555L34.5415 10.612L34.1862 10.6686L33.8316 10.7252L33.4769 10.7818L33.1217 10.8384L32.767 10.895L32.4124 10.9516L32.0572 11.0082L31.7025 11.0648L31.3478 11.1214L30.9932 11.1779L30.6379 11.2345L30.2833 11.2911L29.9286 11.3477L29.6121 11.4508L29.3728 11.648L29.2159 11.7909L29.1268 12.0044L29.0053 12.3159L28.9162 12.8745L28.8865 13.6124V14.4399V15.268V16.0956V16.9237V17.7512V18.5794V19.4069V20.235V21.0626V21.8907V22.7182V23.5458V24.3739V25.202V26.0295V26.8571V27.6852V28.5127L28.9162 29.2669L29.0053 29.8725L29.1268 30.2474L29.1952 30.5029L29.3722 30.7847L29.5835 31.0486L29.8659 31.3097L30.1852 31.5439L30.504 31.7781L30.8228 32.0123L31.1422 32.2459L31.4616 32.4801L31.7809 32.7143L32.0997 32.9485L32.4185 33.1822L32.7379 33.4164L33.0573 33.6506L33.3761 33.8848L33.6949 34.1184L34.0142 34.3526L34.3336 34.5868L34.653 34.821L34.9718 35.0546L35.2906 35.2888L35.6099 35.523L35.9293 35.7572L36.2481 35.9909L36.5669 36.2251L36.8863 36.4593L37.186 36.6257L37.474 36.7361L37.734 36.7697H38.0657L38.4209 36.7131L38.7756 36.6565L39.0916 36.5534L39.3308 36.3562L39.4877 36.2139L39.5779 35.9999L39.6984 35.6883L39.7875 35.1303L39.7919 35.025L41.4762 34.756L41.6062 34.8513L41.9255 35.0855L42.2449 35.3197L42.5642 35.5539L42.864 35.7203L43.1514 35.8301L43.4114 35.8643H43.7431L44.0983 35.8077L44.453 35.7511L44.7695 35.648L45.0082 35.4508L45.1651 35.3079L45.2548 35.0944L45.3758 34.7829L45.4654 34.2243L45.4951 33.4864V32.6588V31.8307V31.0032V30.1751V29.3475V28.5194V27.6919V26.8638V26.0362V25.2081V24.3806V23.553V22.7249V21.8974V21.0693V20.2417V19.4136V18.5861L45.4654 17.8319Z" fill="white"/>
<path d="M38.0225 36.8424C38.1705 36.6941 38.2844 36.5153 38.356 36.3183C38.4278 36.1215 38.4556 35.9113 38.4376 35.7025C38.4669 30.2638 38.4857 24.825 38.4939 19.3861C38.5237 18.5855 38.2902 17.7971 37.8292 17.1418C37.5001 16.7547 37.1135 16.4205 36.6831 16.1507C34.9938 14.8941 33.2935 13.6523 31.5964 12.4063C31.1875 12.1062 30.775 11.8107 30.29 11.4594C30.4622 11.3966 30.6384 11.3454 30.8175 11.3061C31.1773 11.2562 31.5426 11.2431 31.9009 11.1855C32.2629 11.1273 32.6169 11.0197 32.9788 10.9597C33.2611 10.913 33.5513 10.9158 33.8356 10.8779C34.0057 10.8553 34.1694 10.7868 34.3392 10.7577C34.4895 10.7321 34.6466 10.7453 34.7966 10.7184C35.0012 10.6818 35.2007 10.6169 35.4047 10.5759C35.6416 10.5283 35.8804 10.4896 36.1194 10.4539C36.4318 10.411 36.7497 10.4331 37.0532 10.5187C37.3568 10.6043 37.6393 10.7517 37.8832 10.9515C40.0231 12.5344 42.1624 14.1184 44.3258 15.6688C44.7117 15.9397 45.0233 16.303 45.2322 16.7256C45.441 17.1482 45.5405 17.6165 45.5214 18.0875C45.5467 20.4031 45.5446 22.7189 45.5443 25.0348C45.5438 28.047 45.5359 31.0593 45.5205 34.0715C45.504 34.4092 45.4433 34.7434 45.3399 35.0653C45.2855 35.2593 45.1752 35.4331 45.0228 35.5649C44.8703 35.6966 44.6824 35.7806 44.4825 35.8062C44.2454 35.854 44.0046 35.8838 43.7331 35.9268C44.032 35.5496 44.1753 35.0725 44.1337 34.593C44.1629 29.3805 44.1872 24.1678 44.179 18.9553C44.2265 18.3097 44.1452 17.6611 43.9399 17.0473C43.6945 16.4283 43.2752 15.8935 42.7327 15.5075C41.6433 14.7327 40.5747 13.9286 39.4934 13.1425C38.6279 12.5131 37.7743 11.8646 36.8789 11.2807C36.4804 11.0403 36.0447 10.8675 35.5897 10.7695C35.299 10.7274 35.0033 10.7973 34.7623 10.9651C34.5212 11.1328 34.3529 11.3858 34.2913 11.673C34.2536 11.8566 34.1941 12.0349 34.1142 12.2043C34.014 12.411 34.1016 12.4301 34.2736 12.4111C34.5965 12.3498 34.9246 12.321 35.2532 12.3251C35.5283 12.3551 35.7911 12.455 36.0167 12.6153C38.1648 14.1722 40.3044 15.7409 42.4352 17.3215C42.4851 17.3629 42.5261 17.4141 42.5558 17.4719C42.5853 17.5296 42.603 17.5928 42.6076 17.6575C42.6158 23.2382 42.6202 28.8189 42.6205 34.3996C42.6207 34.6167 42.5494 34.9517 42.3755 34.9783C41.6105 35.0955 40.8244 34.9331 40.0585 35.0446C39.8984 35.0679 39.8447 35.1208 39.8239 35.2821C39.7889 35.5225 39.7338 35.7595 39.6589 35.9906C39.6061 36.1666 39.5061 36.3249 39.3699 36.4483C39.2336 36.5717 39.0662 36.6555 38.8857 36.6907C38.6183 36.757 38.342 36.7877 38.0225 36.8424Z" fill="#8FB8E2"/>
<path d="M33.5694 11.2144L37.1866 10.1201L45.2548 16.2301V35.8659L43.0114 35.6889L42.3738 35.1191L42.5654 17.0571L33.756 12.2038L33.5694 11.2144Z" fill="#8FB8E2"/>
<path d="M37.828 37.1072C37.6845 37.1085 37.5412 37.094 37.4007 37.064C36.9657 36.9087 36.5618 36.6773 36.2079 36.3806L31.2621 32.7508C31.046 32.5839 30.8233 32.4252 30.599 32.2654C30.163 31.9692 29.7468 31.6447 29.3531 31.2942C29.1829 31.0961 29.0302 30.8835 28.8967 30.6589C28.8465 30.5287 28.8043 30.3955 28.7704 30.2601C28.7414 30.1539 28.714 30.0505 28.6932 29.9969C28.6029 29.5082 28.555 29.0126 28.5499 28.5157V26.0283C28.5586 24.33 28.5537 22.625 28.5482 20.9184C28.5401 18.2746 28.5313 15.541 28.5794 12.8681L28.673 12.2625C28.6789 12.2278 28.6899 12.1943 28.7058 12.1629C28.7266 12.1213 28.7562 12.0381 28.7879 11.9533C28.8259 11.8437 28.8699 11.7363 28.9198 11.6316C28.9286 11.6144 28.939 11.5981 28.951 11.5829C29.0389 11.4835 29.1379 11.3942 29.2459 11.317C29.2967 11.2771 29.346 11.2404 29.3761 11.2108C29.4075 11.1796 29.4449 11.1551 29.4861 11.1386C29.7882 11.034 30.1012 10.9634 30.419 10.9279L35.5529 10.1099C36.5329 9.92935 37.0921 9.86919 38.0234 10.61L44.395 15.2838C44.707 15.4671 44.9789 15.7115 45.1943 16.0023C45.4096 16.293 45.5641 16.6243 45.6485 16.9762C45.8041 17.6449 45.865 18.332 45.8297 19.0177L45.8307 32.6582C45.8285 32.8043 45.8291 32.951 45.8297 33.1014C45.8979 33.9073 45.7716 34.7177 45.4614 35.4647C45.4411 35.5035 45.4132 35.538 45.3793 35.5659C45.3377 35.6009 45.2912 35.643 45.2425 35.6862C45.1501 35.7699 45.0516 35.8569 44.9667 35.9188L44.963 35.9133C44.833 35.9788 44.6971 36.0313 44.557 36.0703L44.3398 36.1098C43.9261 36.2047 43.4983 36.2212 43.0786 36.1584C42.588 35.9733 42.1333 35.7045 41.7347 35.3639C41.6209 35.277 41.5077 35.1905 41.395 35.1095L40.096 35.3158L40.0298 35.7414C40.0242 35.7753 40.0136 35.808 39.9986 35.8389C39.9772 35.881 39.9477 35.9636 39.9165 36.0478C39.8783 36.1579 39.8341 36.2659 39.7841 36.3712C39.7645 36.4084 39.7379 36.4414 39.7058 36.4686L39.5877 36.5726C39.4892 36.6607 39.3803 36.7564 39.2928 36.8221C39.2635 36.8441 39.2307 36.8611 39.1959 36.8724L38.8797 36.9758L38.6591 37.0157C38.3851 37.069 38.1071 37.0996 37.828 37.1072ZM29.3301 12.4135L29.2475 12.9272C29.2037 15.5465 29.2125 18.2763 29.2207 20.9163C29.2256 22.6245 29.2311 24.3316 29.2218 26.0306L29.2223 27.1785L29.2218 28.513C29.2268 28.9442 29.264 29.3744 29.3334 29.7999C29.367 29.8927 29.3955 29.9871 29.4188 30.0828C29.45 30.1966 29.4806 30.3143 29.5052 30.3744C29.6082 30.5345 29.7208 30.6881 29.8423 30.8346C30.2066 31.1516 30.5896 31.4465 30.9891 31.7177C31.2206 31.8829 31.4504 32.0465 31.6671 32.214L36.6107 35.8417C36.8969 36.0829 37.2205 36.2761 37.5688 36.4134C37.8965 36.4478 38.2277 36.4273 38.5487 36.3527L38.7232 36.3243L38.9295 36.2531C38.9957 36.2 39.0712 36.1327 39.1413 36.0703L39.2135 36.0069C39.2353 35.9549 39.2605 35.8832 39.2863 35.8143C39.3169 35.7311 39.3475 35.6501 39.3727 35.591L39.4553 35.0767L39.4564 35.0521C39.4541 35.0267 39.4549 35.0012 39.4586 34.976C39.4947 33.7088 39.4882 32.348 39.4816 31.031C39.4778 30.2119 39.4739 29.3967 39.481 28.5945V20.6936C39.4827 20.0496 39.4843 19.3191 39.452 18.7566C39.4094 18.5804 39.243 17.7838 39.243 17.7838C39.1167 17.3012 38.5958 16.9258 38.1361 16.5948L32.9567 12.7975C32.88 12.7477 32.8242 12.6714 32.8003 12.5831C32.7863 12.534 32.7833 12.4824 32.7915 12.432C32.7996 12.3817 32.8186 12.3336 32.8473 12.2915C32.93 12.1886 32.93 12.1886 34.0582 12.0096C34.4669 11.9451 34.857 11.8832 34.9096 11.874C34.934 11.8698 34.9587 11.8678 34.9834 11.868C35.0248 11.8675 35.0662 11.8707 35.1071 11.8773L35.216 11.8915C35.3259 11.897 35.4346 11.9168 35.5393 11.9505C35.9563 12.1071 35.9978 12.1295 36.0581 12.1913L42.7645 17.1048C42.8072 17.1359 42.8418 17.1766 42.8657 17.2237C42.8896 17.2708 42.902 17.3229 42.9019 17.3756V35.3536C43.0146 35.4168 43.1329 35.4693 43.2553 35.5106C43.5813 35.5432 43.9105 35.5216 44.2293 35.4466L44.4 35.4186L44.6079 35.347C44.6671 35.3005 44.7316 35.2419 44.7934 35.1861C44.8279 35.155 44.8623 35.1243 44.8947 35.0958C45.1222 34.4578 45.2117 33.7788 45.1573 33.1037C45.1567 32.9488 45.1562 32.7973 45.1589 32.6528L45.1573 19.0165C45.1897 18.3862 45.1359 17.7545 44.9975 17.1387C44.9293 16.8657 44.8066 16.6094 44.6366 16.3851C44.4667 16.1608 44.2531 15.9733 44.0088 15.8337L37.6146 11.1441C36.9001 10.575 36.5985 10.6007 35.6668 10.7725L30.5191 11.5927C30.2717 11.6226 30.0272 11.673 29.7881 11.7432C29.7509 11.7749 29.7066 11.8105 29.6601 11.8466C29.6114 11.8843 29.5353 11.944 29.497 11.9801C29.4741 12.032 29.4461 12.1108 29.4182 12.1869C29.3871 12.2712 29.3553 12.3532 29.3301 12.4135ZM41.4759 34.4201C41.5432 34.4199 41.6091 34.4402 41.6647 34.4781C41.8239 34.5859 41.9826 34.7068 42.1429 34.8294C42.1719 34.8518 42.2009 34.8737 42.2299 34.8956V17.5458L35.6186 12.6969C35.5918 12.687 35.4178 12.623 35.3346 12.5918L35.3209 12.5869L35.119 12.5568C35.0769 12.5508 35.0381 12.5448 35.0063 12.5393H34.9932C34.8766 12.5606 34.6474 12.5973 34.1637 12.6739C34.098 12.6843 34.0324 12.6947 33.9673 12.7051L38.529 16.0493C39.1544 16.4017 39.6382 16.9605 39.8974 17.63C39.9007 17.6459 40.067 18.4393 40.1163 18.6664C40.1567 19.3005 40.1551 20.0414 40.1534 20.6947L40.1529 28.5973C40.1464 29.3994 40.1501 30.2119 40.154 31.0277C40.1595 32.215 40.1655 33.4374 40.1376 34.6286L41.4228 34.4239C41.4404 34.4213 41.4581 34.4201 41.4759 34.4201Z" fill="#0055BA"/>
<path d="M24.2914 10.1737L24.2786 10.0022L24.0998 9.73443L23.9373 9.55906L23.5782 9.38649L23.3423 9.21336L23.1064 9.04079L22.8711 8.86766L22.6352 8.69453L22.3993 8.52196L22.1635 8.34884L21.9276 8.17571L21.6917 8.00314L21.4564 7.83001L21.2205 7.65688L20.9846 7.48431L20.7487 7.31118L20.5129 7.13805L20.277 6.96548L20.0226 6.83269L19.4399 6.78898L18.9642 6.82092V5.69305V2.71289L18.9104 2.4602L18.758 2.24785L18.5294 2.10722L18.4062 1.93521L18.1619 1.924L17.9182 1.81026L17.5652 1.73687L17.1578 1.71558L16.7572 1.74919L16.4244 1.83268L16.2104 1.95314L15.9571 1.97219L15.8781 2.147L15.6501 2.29379L15.4972 2.51118L15.4439 2.76556V5.74573V7.22994L14.715 7.34592L13.7569 7.49888L12.7988 7.65128L11.8407 7.80423L10.8826 7.95719L10.4478 8.02667V7.05121V4.07102L10.394 3.81833L10.2416 3.60598L10.0971 3.40429L9.89034 3.29391L9.58386 3.15103L9.40177 3.16841L9.04935 3.09557L8.64146 3.07372L8.24085 3.10733L7.90804 3.19082L7.69401 3.31128L7.44076 3.33033L7.36176 3.50513L7.13372 3.65249L6.98073 3.86932L6.92751 4.12369V7.10387V8.58808L6.09211 8.72143L5.13402 8.87383L4.17593 9.02678L3.30692 9.19095L2.61553 9.37809L2.10455 9.591L2.14321 9.684L1.79191 9.96023L1.61261 10.2768L1.55322 10.6281V10.9956V11.3637V11.7319V12.0994V12.4675V12.8356L1.61261 13.1701L1.77398 13.3427L1.95383 13.6128L2.18971 13.7859L2.42559 13.9584L2.66147 14.1316L2.89679 14.3047L3.13267 14.4773L3.159 14.4963L3.17413 15.3256L3.21055 16.3834L3.27106 17.4586L3.37191 18.5455L3.52879 19.6398L3.75795 20.7351L4.07508 21.8283L4.28967 22.0574L4.7054 23.0592L5.2472 23.9025L5.53687 24.1154L5.82654 24.3277L6.11677 24.5406L6.40644 24.753L6.69611 24.9659L6.98634 25.1782L7.61389 25.7413L7.90692 25.8747L8.69805 26.133L9.64213 26.1783L10.0091 26.1425V29.2459V33.9367V38.628L10.2327 39.0123L10.4506 39.8091L11.0361 40.1088L11.4922 40.5587L12.159 40.7111L12.9456 40.7643L13.7322 40.7111L14.399 40.5587L14.845 40.3307L15.4406 39.8091L15.6462 39.4555L15.8821 38.628V33.9367V29.2459V25.2533L16.49 25.1564L17.6089 24.9776L18.6493 24.7479L19.5329 24.4157L20.2781 23.9422L20.9034 23.2884L21.4183 22.4535L21.8312 21.4372L22.1489 20.3306L22.3781 19.2246L22.5355 18.1236L22.6364 17.0328L22.6969 15.9548L22.7333 14.8947L22.7512 13.9439L23.358 13.7741L23.7127 13.6139L23.7866 13.5808L24.1144 13.3382L24.2914 13.0536L24.3503 12.7129V12.3454V11.9773V11.6092V11.2416V10.8735V10.5054L24.2914 10.1737Z" fill="white"/>
<path d="M21.9201 21.3766C22.2796 20.2575 22.5089 19.1006 22.6033 17.929C22.694 16.7057 22.7416 15.4791 22.7955 14.2534C22.8036 14.0693 22.8414 13.9773 23.0358 13.9317C23.2807 13.8724 23.5187 13.7879 23.746 13.6795C23.9291 13.6176 24.089 13.5016 24.2045 13.3466C24.32 13.1917 24.3855 13.0054 24.3925 12.8123C24.3954 11.9859 24.3881 11.1596 24.3708 10.3332C24.3595 10.1805 24.3114 10.0327 24.2308 9.90248C24.1503 9.77228 24.0394 9.66338 23.9078 9.58508C22.9735 8.90475 22.04 8.22351 21.1071 7.54135C20.6578 7.12632 20.0768 6.88262 19.4659 6.85306C19.3144 6.84648 19.1637 6.82799 19.0152 6.79766C19.0152 6.68329 19.0152 6.57971 19.0152 6.4762C19.0153 5.30946 19.0108 4.14266 19.0178 2.97592C19.0332 2.76176 18.979 2.54836 18.8635 2.36742C18.7479 2.18646 18.5771 2.04762 18.3763 1.97149C17.7277 1.74353 17.0252 1.71719 16.3614 1.89595C16.2955 1.92178 16.2363 1.96202 16.188 2.01371C16.1398 2.06539 16.1037 2.12722 16.0824 2.19466C16.0625 2.25858 16.2104 2.39382 16.3049 2.46865C16.3991 2.52909 16.501 2.57673 16.6078 2.61028C16.9243 2.7233 17.2337 2.8558 17.5338 3.00703C17.6123 3.05374 17.6804 3.11591 17.7341 3.18974C17.7879 3.26359 17.826 3.34757 17.8462 3.4366C17.8941 3.92821 17.9156 4.42211 17.9104 4.91607C17.9174 6.29172 17.9131 7.66749 17.9123 9.04328C17.9123 9.1358 17.9045 9.22838 17.9005 9.31985C17.2988 9.43485 16.6779 9.39864 16.0937 9.21452C15.6677 9.07991 15.4524 9.00749 15.4881 8.39621C15.5087 8.04372 15.4919 7.68906 15.4919 7.31542L10.4988 8.10865V7.77079C10.4988 6.61277 10.4948 5.45465 10.501 4.2966C10.5117 4.12193 10.4736 3.94775 10.3909 3.79353C10.3083 3.63924 10.1843 3.51108 10.0329 3.42331C9.32884 3.0898 8.52426 3.03665 7.78244 3.27462C7.72459 3.29922 7.6729 3.3363 7.63102 3.38318C7.58914 3.43007 7.55811 3.48562 7.54011 3.54589C7.52099 3.60808 7.62682 3.75459 7.70939 3.79388C8.01937 3.94152 8.34371 4.05862 8.66104 4.19113C8.95351 4.31327 9.29872 4.40628 9.33696 4.78594C9.38374 5.25021 9.39187 5.71967 9.39418 6.18695C9.4009 7.58008 9.39656 8.97324 9.39656 10.3664V10.6676C8.7855 10.7821 8.15594 10.7496 7.55993 10.5726C7.158 10.4156 6.93728 10.3674 6.97195 9.76346C6.99226 9.40971 6.97566 9.05385 6.97566 8.67412C6.17956 8.80018 5.4149 8.91182 4.65389 9.04482C4.06328 9.14812 3.47539 9.26669 2.89031 9.4006C2.58229 9.47078 2.55045 9.62731 2.76762 9.85346C2.80739 9.89975 2.85109 9.94247 2.8983 9.98106C3.33812 10.3008 3.78264 10.614 4.21995 10.9371C4.78199 11.3522 5.36154 11.7481 5.88912 12.2038C6.18236 12.505 6.53954 12.7365 6.93434 12.881C7.51168 13.0458 7.64055 13.4875 7.62332 14.0249C7.60826 14.4947 7.61988 14.9653 7.62023 15.4354C7.59796 15.7857 7.71233 16.1309 7.93918 16.3986C8.32193 16.3405 8.71014 16.2907 9.09435 16.2195C9.28373 16.1845 9.3441 16.2397 9.34684 16.4277C9.35769 17.1735 9.3773 17.9192 9.39726 18.6648C9.4112 19.1842 9.42324 19.7039 9.45021 20.2228C9.49594 21.1029 9.53187 21.9843 9.61115 22.8617C9.68679 23.6977 9.82217 24.5282 9.91091 25.3632C9.94081 25.6441 10.0272 25.9487 9.77328 26.1973L9.80382 26.2565L14.0466 25.6249C14.0466 25.7699 14.047 25.8727 14.0465 25.9755C14.0293 29.7085 14.0122 33.4415 13.9951 37.1744C13.9923 37.8187 14.0009 38.4632 13.9926 39.1074C13.9833 39.8352 13.8417 40.4953 13.0465 40.8118C13.286 40.7953 13.527 40.7908 13.7647 40.7603C14.0679 40.7454 14.3651 40.6701 14.639 40.539C14.9127 40.4079 15.1577 40.2235 15.3595 39.9966C15.5612 39.7697 15.7158 39.5049 15.814 39.2177C15.9122 38.9304 15.9523 38.6265 15.9317 38.3236C15.9339 34.2573 15.9347 30.191 15.934 26.1247C15.9342 25.8578 15.858 25.5045 15.9956 25.3483C16.135 25.19 16.4959 25.2278 16.7593 25.1771C17.4167 25.0508 18.0748 24.9281 18.7299 24.7911C18.8399 24.7681 18.9882 24.763 18.9891 24.5636C18.9912 24.1218 19.028 23.6803 19.0349 23.2383C19.0248 23.0462 19.0563 22.8542 19.1272 22.6754C19.1982 22.4966 19.3069 22.3352 19.446 22.2023C19.5851 22.0694 19.7512 21.9681 19.9331 21.9053C20.1149 21.8426 20.3082 21.8198 20.4996 21.8386L21.9201 21.3766Z" fill="#8FB8E2"/>
<path d="M12.9689 41.1L12.1361 41.0464L11.4176 40.8866C11.3904 40.8805 11.364 40.8709 11.3391 40.8582L10.8935 40.63C10.8721 40.6191 10.8519 40.6059 10.8333 40.5906C10.5492 40.4166 10.3061 40.1832 10.1207 39.9064C9.93532 39.6295 9.81213 39.3159 9.75953 38.9869L9.68564 38.7188C9.67738 38.6892 9.6731 38.6586 9.67303 38.628L9.67332 31.9078L9.67303 26.1358C9.6731 26.0467 9.70861 25.9612 9.77165 25.8983C9.83468 25.8352 9.92019 25.7999 10.0093 25.7999C10.0534 25.7999 10.0971 25.8085 10.1379 25.8254C10.1787 25.8422 10.2157 25.867 10.247 25.8982C10.2782 25.9294 10.3029 25.9664 10.3199 26.0072C10.3368 26.0479 10.3455 26.0916 10.3455 26.1358V38.5825L10.4081 38.8096C10.4416 39.0653 10.5333 39.3099 10.6762 39.5246C10.819 39.7392 11.0093 39.9182 11.2322 40.0479L11.6081 40.2405L12.2338 40.3833L12.9689 40.4292L13.7094 40.3756L14.2823 40.241L14.6546 40.0505L15.1777 39.5926L15.3342 39.3234L15.546 38.5809V25.2532C15.546 25.1641 15.5814 25.0786 15.6445 25.0155C15.7075 24.9524 15.793 24.917 15.8822 24.917C15.9714 24.917 16.0569 24.9524 16.1199 25.0155C16.183 25.0786 16.2184 25.1641 16.2184 25.2532V38.628C16.2184 38.6592 16.2141 38.6903 16.2056 38.7204L15.9695 39.5482C15.9619 39.5751 15.9509 39.6008 15.9366 39.6249L15.7312 39.9783C15.7128 40.0098 15.6894 40.0381 15.662 40.062L15.0662 40.5835C15.0455 40.6019 15.0226 40.6175 14.998 40.63L14.5524 40.8582C14.5274 40.8709 14.5011 40.8805 14.4739 40.8866L13.8071 41.0387L12.9689 41.1Z" fill="#0055BA"/>
<path d="M10.2177 16.3149C10.1332 16.3147 10.0519 16.2826 9.99001 16.2253C9.92803 16.1679 9.89 16.0892 9.88335 16.005C9.87677 15.9208 9.90205 15.8373 9.9543 15.7709C10.0065 15.7045 10.0818 15.6602 10.1652 15.6468L19.7584 14.1164C19.8465 14.1026 19.9363 14.1243 20.0083 14.1767C20.0804 14.229 20.1287 14.3078 20.1427 14.3958C20.1567 14.4838 20.1352 14.5737 20.0829 14.6458C20.0307 14.718 19.9519 14.7665 19.8641 14.7807L10.2713 16.311C10.2536 16.3137 10.2356 16.3149 10.2177 16.3149Z" fill="#ED1E71"/>
<path d="M9.34865 26.5023C9.11914 26.5029 8.88984 26.4913 8.66166 26.4673C8.63869 26.4645 8.61607 26.4596 8.59408 26.4525L7.8026 26.1942C7.47532 26.0509 7.17018 25.8617 6.89624 25.6323C6.79007 25.5513 6.68641 25.472 6.58493 25.4025C6.03508 25.0203 5.51162 24.6015 5.01808 24.1489C3.03059 21.8356 2.91076 17.8233 2.82322 14.8938L2.81117 14.4944C2.80865 14.4054 2.84157 14.3191 2.90257 14.2544C2.96365 14.1897 3.04782 14.1518 3.13677 14.1491C3.22564 14.1463 3.31207 14.1789 3.37699 14.2397C3.44185 14.3006 3.48001 14.3846 3.48303 14.4736L3.49542 14.8735C3.57968 17.7029 3.69538 21.5778 5.50238 23.6839C5.96385 24.1028 6.45207 24.4913 6.96382 24.8471C7.07493 24.9232 7.18845 25.0096 7.30415 25.0977C7.52365 25.2834 7.76695 25.4391 8.02749 25.5606L8.76889 25.8025C9.83876 25.8475 10.9101 25.7587 11.958 25.5382L16.437 24.8241C17.4502 24.7192 18.4447 24.4791 19.3941 24.1101L20.0628 23.6806L20.6392 23.0781C22.2407 20.6204 22.3269 17.3051 22.4032 14.3789L22.415 13.9346C22.4191 13.846 22.4573 13.7626 22.5217 13.7016C22.5861 13.6407 22.6716 13.6071 22.7602 13.6079C22.8043 13.6092 22.8478 13.6191 22.8881 13.6371C22.9284 13.6551 22.9648 13.6808 22.9951 13.7129C23.0254 13.745 23.0492 13.7827 23.0649 13.8239C23.0806 13.8652 23.0881 13.9091 23.0869 13.9532L23.0751 14.3964C22.9966 17.4222 22.9074 20.8523 21.1844 23.4732C21.1731 23.4901 21.1604 23.5061 21.1464 23.5208L20.521 24.1747C20.5022 24.1941 20.4812 24.2112 20.4583 24.2255L19.7134 24.6994C18.6965 25.1093 17.6273 25.3751 16.5369 25.4889L12.0672 26.2019C11.1706 26.3754 10.2614 26.4758 9.34865 26.5023Z" fill="#0055BA"/>
<path d="M10.4473 8.36281C10.3627 8.36274 10.2814 8.3308 10.2193 8.27337C10.1572 8.21601 10.1191 8.13729 10.1125 8.05304C10.1058 7.96878 10.1312 7.88509 10.1835 7.8187C10.2358 7.7523 10.3113 7.70804 10.3947 7.69473L15.3906 6.8981C15.4785 6.8843 15.5684 6.90601 15.6404 6.9584C15.7125 7.01076 15.7608 7.08955 15.7748 7.17752C15.7888 7.26548 15.7673 7.35541 15.715 7.42755C15.6628 7.49968 15.5841 7.54815 15.4962 7.56229L10.5004 8.35896C10.4828 8.36162 10.465 8.36288 10.4473 8.36281Z" fill="#0055BA"/>
<path d="M6.72597 16.7648C6.41116 16.7691 6.09691 16.7362 5.7898 16.6668C5.76613 16.6613 5.74315 16.6531 5.72137 16.6422L5.59475 16.5815C5.3104 16.4606 5.04272 16.3039 4.79809 16.1153L2.46168 14.4032C2.3673 14.3283 2.27319 14.262 2.17717 14.1948C1.94006 14.0427 1.7236 13.8607 1.53316 13.6531L1.33317 13.3576C1.31185 13.3257 1.29612 13.2904 1.28667 13.2531C1.24486 13.0636 1.21751 12.8712 1.20486 12.6775C1.20596 12.4903 1.20542 12.2814 1.20486 12.0751L1.20459 11.5613C1.20924 11.4168 1.20678 11.2735 1.20432 11.1263C1.18344 10.764 1.20631 10.4004 1.27243 10.0435C1.28063 10.0075 1.29478 9.9731 1.31429 9.94173L1.49103 9.65717C1.5134 9.62131 1.54236 9.58994 1.57638 9.56472L1.90386 9.32184C2.54697 9.02292 3.23173 8.82332 3.93468 8.72975L4.11418 8.69698L6.87452 8.25645C6.96262 8.24258 7.05264 8.26415 7.12478 8.31661C7.19692 8.36907 7.24524 8.448 7.25918 8.5361C7.27311 8.62414 7.25147 8.71421 7.19909 8.78634C7.14663 8.85848 7.0677 8.9068 6.97957 8.92074L4.05584 9.39131C3.43862 9.47298 2.83561 9.6398 2.26417 9.88703L2.02917 10.0649L1.91646 10.2465C1.87471 10.5341 1.86133 10.8252 1.87652 11.1154C1.87925 11.2735 1.88171 11.4284 1.87679 11.5739L1.87735 12.0729C1.87791 12.2819 1.87847 12.4931 1.87708 12.6698C1.88767 12.7928 1.90447 12.9152 1.92741 13.0364L2.07077 13.2509C2.22071 13.3991 2.38587 13.5309 2.56348 13.6443C2.67155 13.7204 2.77715 13.7948 2.87097 13.8698L5.2183 15.5911C5.42393 15.7453 5.64741 15.8741 5.88393 15.9747L5.98135 16.0212C6.73767 16.1232 7.5057 16.0999 8.25453 15.9523C8.54644 15.903 8.95867 15.8385 9.35515 15.7761L18.7983 14.2703C19.2442 14.1915 19.7122 14.1209 20.1858 14.0503C21.2237 13.9187 22.2519 13.7189 23.2635 13.4523L23.6165 13.2898L23.8621 13.1071L23.9765 12.9232C24.0117 12.6904 24.0243 12.4548 24.014 12.2196C24.0131 12.1331 24.0126 12.0494 24.0137 11.9728V10.8719C24.0238 10.6255 24.0068 10.3787 23.9631 10.1359C23.8947 10.0224 23.8145 9.91638 23.7237 9.81973C23.6822 9.788 23.6036 9.73162 23.5232 9.67363C23.4239 9.60191 23.3221 9.5281 23.2594 9.47935L20.8585 7.71808C20.6627 7.56085 20.4524 7.42253 20.2304 7.30501L19.916 7.15506C19.6134 7.09539 19.3049 7.0706 18.9965 7.08117C18.9526 7.08552 18.9083 7.08117 18.8661 7.06843C18.8237 7.05561 18.7845 7.0346 18.7504 7.00666C18.7162 6.97861 18.688 6.94416 18.6671 6.90522C18.6463 6.86628 18.6334 6.82362 18.629 6.77971C18.6248 6.7358 18.6291 6.69139 18.642 6.64916C18.6548 6.60693 18.6758 6.56764 18.7039 6.53353C18.7319 6.4995 18.7664 6.4712 18.8053 6.45047C18.8443 6.42967 18.887 6.41678 18.9309 6.41251C19.3186 6.395 19.7071 6.42547 20.0873 6.50335C20.1147 6.50881 20.1413 6.51764 20.1664 6.52961L20.5122 6.69434C20.7778 6.83021 21.0289 6.99276 21.2616 7.17964L23.6646 8.94315C23.7301 8.99351 23.8247 9.06193 23.9169 9.12868C24.0025 9.19045 24.0863 9.25068 24.141 9.29228C24.3025 9.44685 24.4424 9.62264 24.5568 9.81482C24.5789 9.84879 24.5953 9.88612 24.6055 9.92534C24.6725 10.2426 24.6995 10.567 24.6859 10.8911L24.6865 12.2146C24.7022 12.5248 24.6785 12.8357 24.6159 13.1399C24.6072 13.1721 24.594 13.2028 24.5765 13.2313L24.3997 13.5163C24.3775 13.5523 24.3485 13.5837 24.3144 13.6087L23.987 13.8517C23.9671 13.8669 23.9453 13.8796 23.9224 13.8895L23.4961 14.0815C22.4417 14.3661 21.3689 14.5778 20.2854 14.7151C19.8181 14.7851 19.3558 14.8541 18.9101 14.9334L9.45929 16.4403C9.06534 16.5021 8.65584 16.5667 8.35762 16.6165C7.81778 16.7035 7.27262 16.753 6.72597 16.7648Z" fill="#0055BA"/>
<path d="M17.1285 9.62808C16.8845 9.6313 16.6407 9.61092 16.4006 9.56736L15.9448 9.47323C15.9236 9.46861 15.9029 9.46202 15.8829 9.45355C15.8564 9.44255 15.7573 9.39605 15.66 9.3501C15.5785 9.3113 15.4983 9.27348 15.4734 9.26256C15.3997 9.2309 15.3399 9.17382 15.3048 9.10169C15.2842 9.07794 15.2644 9.05364 15.2463 9.02787C15.1971 8.96161 15.1536 8.89711 15.1454 8.88177C15.1202 8.8338 15.1071 8.7805 15.1071 8.72636V2.7662C15.1432 2.43529 15.2761 2.12239 15.4892 1.86667C15.5183 1.83382 15.5534 1.80689 15.5927 1.78733C15.6414 1.76324 15.7199 1.71786 15.8003 1.67135C15.9078 1.60952 16.0181 1.5466 16.0818 1.5165C16.4249 1.41292 16.7797 1.35299 17.1378 1.33813C17.4942 1.34286 17.849 1.38727 18.1955 1.47054L18.3692 1.54824C18.5131 1.61609 18.6951 1.70254 18.7878 1.75891C18.8262 1.78215 18.8595 1.81285 18.8857 1.84919L19.1834 2.26503C19.2105 2.30261 19.2295 2.34549 19.2389 2.39088L19.2926 2.64366C19.2977 2.66738 19.3002 2.6916 19.2999 2.71588C19.2964 3.11531 19.298 4.02522 19.2997 4.89738C19.3008 5.67107 19.3021 6.41521 19.2999 6.74844V8.67334C19.2998 8.73554 19.2826 8.79654 19.2501 8.84956C19.2411 8.86924 19.2288 8.89935 19.2171 8.92835C19.1937 9.0009 19.1576 9.06877 19.1103 9.12858C19.0858 9.15645 19.0568 9.17992 19.0245 9.19805L18.6677 9.39941C18.6423 9.41363 18.6152 9.42462 18.587 9.43226L18.0322 9.57121C17.7324 9.60763 17.4306 9.62661 17.1285 9.62808ZM16.1168 8.8221L16.5376 8.90916C16.9931 8.97268 17.4552 8.97345 17.911 8.91133L18.3766 8.7915L18.5974 8.66725C18.6083 8.6405 18.6182 8.61697 18.6275 8.59504V6.7462C18.6299 6.41135 18.6286 5.66995 18.6272 4.89843C18.6255 4.04981 18.6242 3.1645 18.6272 2.74702L18.5883 2.58834L18.3831 2.30218C18.2994 2.25786 18.181 2.2026 18.0833 2.15719L17.9528 2.0948C17.686 2.04461 17.4155 2.01625 17.1441 2.01001C16.8701 2.02363 16.5985 2.06674 16.3338 2.13858C16.3157 2.14952 16.2249 2.2026 16.136 2.254C16.0731 2.29012 16.0109 2.32568 15.9595 2.35414C15.8632 2.48812 15.8006 2.64333 15.7771 2.80663L15.7863 8.62677C15.8008 8.64645 15.8156 8.66725 15.8296 8.68644C15.8646 8.70283 15.9059 8.72251 15.9473 8.74226C16.0126 8.77287 16.0782 8.80403 16.1168 8.8221Z" fill="#0055BA"/>
<path d="M8.79095 10.9949L8.06734 10.9605L7.43106 10.8319C7.40403 10.8264 7.37776 10.8178 7.35276 10.8062L6.947 10.6174C6.90239 10.5962 6.86296 10.5653 6.83159 10.5271C6.81982 10.5129 6.78039 10.4582 6.73991 10.4002C6.71091 10.3586 6.68052 10.3148 6.66714 10.2973C6.62022 10.2362 6.5936 10.162 6.59108 10.085C6.58996 9.29384 6.59052 8.29253 6.59136 7.27869C6.5922 6.15315 6.59304 5.01233 6.59108 4.12483C6.62708 3.79426 6.75994 3.48171 6.97299 3.22643C7.00016 3.19565 7.03276 3.17007 7.06911 3.15091C7.11008 3.12903 7.17389 3.09237 7.24224 3.05297C7.36263 2.9835 7.49584 2.90798 7.56784 2.87461C7.91018 2.77179 8.264 2.71205 8.62111 2.69678C8.97711 2.69914 9.3317 2.74341 9.6774 2.82864C9.69407 2.83356 9.75016 2.85819 9.76571 2.86531C9.91104 2.93315 10.1578 3.04914 10.2703 3.11645C10.3082 3.13941 10.3413 3.16951 10.3679 3.20509L10.6327 3.57498C10.7842 3.69859 10.7999 3.94099 10.7848 6.73697C10.784 6.90443 10.7832 7.01598 10.7837 7.04119C10.7856 7.34816 10.7845 7.87455 10.7837 8.41894C10.7826 9.03666 10.7812 9.67742 10.784 10.0292C10.7842 10.0777 10.7742 10.1256 10.7544 10.1698L10.6505 10.4013C10.621 10.4672 10.5711 10.5218 10.5082 10.5572L10.1515 10.7581C10.1262 10.7722 10.0992 10.7832 10.0713 10.7909L9.51652 10.9298C9.49768 10.9349 9.47842 10.9379 9.45902 10.9391L8.79095 10.9949ZM7.60363 10.1813L8.15138 10.2951L8.78199 10.3241L9.37701 10.2716L9.86096 10.1502L10.082 10.0259L10.1113 9.96079C10.1091 9.59639 10.1102 8.9973 10.1113 8.41782C10.1124 7.8756 10.1132 7.35033 10.1116 7.05324C10.1113 7.05107 10.1116 6.92684 10.1127 6.73368C10.1211 5.15514 10.1124 4.22555 10.0863 3.96676L9.86755 3.66141C9.75724 3.6023 9.58817 3.52463 9.48207 3.47484C9.20192 3.41568 8.9173 3.38018 8.6312 3.3687C8.35624 3.38236 8.08359 3.42547 7.81787 3.49728C7.7902 3.51258 7.67892 3.57715 7.57765 3.6357C7.52974 3.66309 7.48408 3.68935 7.44528 3.7112C7.34828 3.84539 7.2851 4.00101 7.26115 4.16483C7.26521 5.01177 7.26437 6.15315 7.26388 7.27918C7.26304 8.24715 7.26248 9.203 7.26332 9.97557L7.29148 10.0156L7.31284 10.0456L7.60363 10.1813Z" fill="#0055BA"/>
<path d="M35.4724 28.33L35.3827 27.7243L35.3261 27.5377L35.1934 27.094L35.0163 26.8122L34.8056 26.5477L34.5227 26.2866L34.2039 26.053L33.8845 25.8188L33.5652 25.5846L33.2458 25.3504L32.9275 25.1167L32.6082 24.8825L32.2888 24.6483L31.9695 24.4141L31.6506 24.1805L31.3318 23.9463L31.0125 23.7121L30.6931 23.4779L30.3737 23.2442L30.0555 23.01L29.7361 22.7758L29.4168 22.5416L29.0974 22.308L28.7786 22.0738L28.4598 21.8396L28.1404 21.6054L27.8211 21.3717L27.5017 21.1375L27.202 20.9711L26.914 20.8608L26.6546 20.8271H26.3229L25.9682 20.8837L25.613 20.9403L25.2578 20.9969L24.9031 21.0535L24.5484 21.1101L24.1938 21.1667L23.8385 21.2233L23.4839 21.2799L23.1292 21.3365L22.774 21.393L22.4193 21.4496L22.0647 21.5062L21.7094 21.5628L21.3548 21.6194L21.0001 21.676L20.6449 21.7326L20.2902 21.7892L19.9356 21.8458L19.619 21.9488L19.3803 22.1461L19.2234 22.2884L19.1338 22.5024L19.0128 22.8139L18.9231 23.372L18.8934 24.1104V24.938V25.7661V26.5936V27.4217V28.2493V29.0768V29.9049V30.7325V31.5606V32.3881V33.2163V34.0438V34.8719V35.6995V36.5276V37.3551V38.1832V39.0108L18.9231 39.7643L19.0128 40.37L19.0694 40.5566L19.2022 41.0009L19.3792 41.2827L19.5904 41.5466L19.8728 41.8077L20.1922 42.0419L20.511 42.2761L20.8304 42.5098L21.1492 42.744L21.4685 42.9782L21.7879 43.2124L22.1067 43.446L22.4261 43.6802L22.7449 43.9144L23.0642 44.1486L23.383 44.3823L23.7024 44.6165L24.0212 44.8507L24.3406 45.0849L24.6599 45.3185L24.9787 45.5527L25.2975 45.7869L25.6169 46.0211L25.9363 46.2547L26.2556 46.4889L26.5744 46.7231L26.8932 46.9573L27.1936 47.1237L27.481 47.2336L27.7415 47.2677H28.0732L28.4279 47.2111L28.7825 47.1546L29.0985 47.0509L29.3378 46.8542L29.4947 46.7114L29.5843 46.4973L29.7053 46.1864L29.795 45.6278L29.7995 45.5224L31.4837 45.2541L31.6137 45.3493L31.9325 45.5835L32.2518 45.8177L32.5712 46.0519L32.871 46.2183L33.1589 46.3281L33.4184 46.3623H33.7501L34.1053 46.3057L34.4605 46.2491L34.7765 46.1455L35.0157 45.9488L35.1726 45.8059L35.2623 45.5919L35.3827 45.281L35.4724 44.7223L35.5021 43.9844V43.1563V42.3288V41.5012V40.6731V39.8456V39.0175V38.1899V37.3618V36.5343V35.7062V34.8786V34.0505V33.223V32.3949V31.5673V30.7392V29.9117V29.0836L35.4724 28.33Z" fill="white"/>
<path d="M20.7053 21.8648C20.641 21.9023 19.4715 22.2387 19.3898 22.2863C19.4536 22.3593 26.6905 27.3882 26.9135 27.6622C27.373 28.227 28.2106 28.6141 28.2095 29.3503C28.2016 34.6356 28.1988 39.9209 28.201 45.2062C28.2009 45.4935 28.204 45.7821 28.1778 46.0675C28.2123 46.5211 28.0931 46.973 27.8393 47.3505C28.124 47.3117 28.3505 47.2745 28.5784 47.2509C29.3948 47.1668 29.6966 46.7119 29.8035 45.9714C29.8616 45.569 29.8593 45.5686 30.2622 45.5102C30.288 45.5064 30.3143 45.5054 30.34 45.5013C31.095 45.3801 31.8498 45.2585 32.6253 45.1337V44.8876C32.6253 39.315 32.6265 33.7424 32.629 28.1697C32.6337 28.0978 32.6186 28.0259 32.5855 27.9619C32.5524 27.8978 32.5025 27.8439 32.4411 27.8061C30.4104 26.3238 24.5654 22.7658 26.3604 23.3434C27.8531 24.1682 29.2768 25.1123 30.6173 26.1665C31.6461 26.9427 32.6223 27.502 32.629 28.1697C32.734 38.6219 29.8008 45.4537 33.1105 46.2222C35.0814 46.6798 34.8239 37.8715 34.8239 27.5288C34.8539 27.1726 27.323 21.9526 27.5671 21.646C27.7087 21.4683 25.034 21.3573 25.1731 21.2032C25.1843 21.2032 25.1583 21.2 25.1333 21.2036C24.3622 21.3129 23.5914 21.4249 22.8199 21.5314C22.5895 21.5632 22.3553 21.5691 22.1259 21.6062L20.7053 21.8648Z" fill="#8FB8E2"/>
<path d="M33.2914 46.3571C33.5128 45.8911 33.6133 45.3768 33.5835 44.8618C33.5964 44.6622 33.5945 44.4615 33.5949 44.2614C33.6036 39.1687 33.6119 34.076 33.6196 28.9833C33.658 28.4306 33.6061 27.8754 33.4658 27.3394C33.3085 26.789 32.9729 26.3064 32.5117 25.9673C31.4282 25.1985 30.3691 24.3954 29.292 23.6175C28.3339 22.9254 27.3775 22.2295 26.3933 21.576C26.0869 21.3726 25.5088 21.4558 25.1537 21.3269C25.0748 21.2982 25.1752 21.1275 25.092 21.0542C25.5203 20.9861 25.9487 20.9179 26.3769 20.8499C26.5513 20.8386 26.7261 20.8629 26.8907 20.9212C27.0554 20.9796 27.2064 21.0708 27.3347 21.1894C29.5397 22.7845 31.7367 24.3906 33.9258 26.0077C34.2222 26.2195 34.4931 26.4651 34.7329 26.7394C35.0695 27.2295 35.2491 27.8104 35.2481 28.405C35.2622 28.5436 35.2686 28.6829 35.2673 28.8223C35.2682 33.9504 35.2654 39.0784 35.2588 44.2065C35.2394 44.6479 35.1695 45.0856 35.0505 45.511C35.0048 45.6855 34.9094 45.8429 34.7757 45.964C34.6421 46.0851 34.4761 46.1648 34.2981 46.1932C33.9825 46.2669 33.6572 46.2994 33.2914 46.3571Z" fill="#8FB8E2"/>
<path d="M27.8365 47.6055C27.6925 47.6067 27.5488 47.5922 27.408 47.5622C26.9721 47.4066 26.5675 47.1745 26.213 46.8767L21.2694 43.249C21.0528 43.0816 20.8298 42.9229 20.6049 42.7632C20.1694 42.4671 19.7537 42.1429 19.3605 41.7925C19.1904 41.5943 19.0378 41.3818 18.9044 41.1572C18.8538 41.0265 18.8113 40.8927 18.7771 40.7567C18.7484 40.6516 18.7216 40.5483 18.7003 40.4952C18.6105 40.0066 18.5626 39.5113 18.557 39.0145V36.5272C18.5663 34.8267 18.561 33.1195 18.5556 31.4107C18.5474 28.769 18.5389 26.0371 18.5868 23.3665L18.6806 22.7607C18.686 22.726 18.697 22.6924 18.7131 22.6611C18.7339 22.6201 18.7632 22.5375 18.7944 22.4527C18.8329 22.3426 18.8772 22.2347 18.9271 22.1293C18.9361 22.1128 18.9466 22.097 18.9583 22.0823C19.0462 21.9822 19.1455 21.8925 19.254 21.8152C19.3049 21.7753 19.3536 21.7386 19.3834 21.7096C19.415 21.6784 19.4525 21.6539 19.4937 21.6374C19.7941 21.5334 20.1052 21.4629 20.4211 21.4273L25.5608 20.6082C26.5397 20.4282 27.0983 20.3674 28.0307 21.1088L34.4023 25.7821C34.7143 25.9656 34.9861 26.2101 35.2015 26.501C35.4168 26.7918 35.5714 27.1231 35.6559 27.475C35.8115 28.1435 35.8724 28.8305 35.837 29.5159L35.8382 43.1571C35.8359 43.3026 35.8365 43.4493 35.837 43.5992C35.9048 44.4051 35.7789 45.2155 35.4698 45.9629C35.4494 46.002 35.4213 46.0366 35.3873 46.0647C35.3457 46.0997 35.2986 46.1418 35.2499 46.1851C35.1575 46.2683 35.0595 46.3552 34.9752 46.4171C34.9463 46.4383 34.9142 46.4548 34.8801 46.4658L34.5643 46.5686L34.346 46.6086C33.9328 46.7042 33.5052 46.7205 33.0859 46.6567C32.5943 46.4717 32.1388 46.2023 31.7399 45.8606C31.6267 45.7736 31.5145 45.6882 31.4023 45.6078L30.1039 45.8146L30.0371 46.2403C30.0317 46.2739 30.0212 46.3063 30.006 46.3366C29.9852 46.3788 29.9562 46.4603 29.9249 46.544C29.886 46.6551 29.8412 46.7642 29.7909 46.8706C29.7713 46.9073 29.7449 46.94 29.7132 46.9669L29.601 47.066C29.5009 47.1552 29.3893 47.2537 29.3001 47.3204C29.2708 47.3424 29.2381 47.3594 29.2033 47.3708L28.887 47.4742L28.672 47.5136C28.3965 47.567 28.117 47.5978 27.8365 47.6055ZM19.3372 22.9117L19.2549 23.4255C19.2113 26.0426 19.2198 28.7702 19.228 31.4085C19.2332 33.1189 19.2387 34.8282 19.2294 36.5294V39.0118C19.2343 39.4427 19.2716 39.8728 19.3407 40.2982C19.3742 40.3903 19.4026 40.4842 19.4258 40.5794C19.457 40.6938 19.4877 40.8115 19.5128 40.8722C19.6153 41.0326 19.7276 41.1865 19.8493 41.3329C20.2136 41.6492 20.5961 41.9439 20.9948 42.2154C21.2271 42.3807 21.4571 42.5449 21.6738 42.7122L26.6157 46.3383C26.9023 46.5806 27.2267 46.7743 27.576 46.9117C27.9054 46.9464 28.2383 46.9257 28.5609 46.8504L28.73 46.8225L28.9368 46.7514C29.0047 46.6972 29.0823 46.6271 29.154 46.5637L29.2202 46.5057C29.2426 46.4526 29.2683 46.3798 29.2946 46.3098C29.3253 46.2277 29.3553 46.1478 29.38 46.0892L29.4632 45.5744L29.4643 45.5514C29.462 45.5259 29.4627 45.5002 29.4665 45.4748C29.5025 44.2076 29.496 42.8463 29.4894 41.5293C29.4856 40.7102 29.4818 39.8949 29.4889 39.0928V31.1919C29.4905 30.5479 29.4922 29.8174 29.4599 29.2549C29.4172 29.0799 29.2509 28.2816 29.2509 28.2816C29.125 27.8011 28.6052 27.4264 28.1467 27.0959L22.9266 23.2762C22.886 23.2482 22.8521 23.2117 22.8273 23.1692C22.8024 23.1267 22.7871 23.0793 22.7827 23.0303C22.7782 22.9813 22.7846 22.9318 22.8014 22.8855C22.8182 22.8392 22.8449 22.7972 22.8798 22.7624C22.9583 22.6836 22.9583 22.6836 24.0898 22.5047C24.4999 22.4395 24.8862 22.3782 24.9223 22.3722C24.9426 22.369 24.9612 22.3684 24.9853 22.3668C25.0285 22.3663 25.0716 22.3695 25.1144 22.3761L25.2233 22.3903C25.3332 22.3958 25.4419 22.4157 25.5466 22.4494C25.9603 22.6037 26.003 22.6267 26.0626 22.6869L32.7724 27.6036C32.815 27.6347 32.8497 27.6755 32.8735 27.7226C32.8974 27.7696 32.9098 27.8217 32.9097 27.8745V45.8529C33.0223 45.9157 33.1404 45.9679 33.2626 46.0089C33.588 46.0416 33.9166 46.0201 34.235 45.9454L34.4079 45.917L34.6152 45.8458C34.6743 45.7987 34.7389 45.7402 34.8013 45.6844C34.8363 45.6532 34.8702 45.6232 34.9025 45.5947C35.129 44.9561 35.2183 44.2768 35.1645 43.6014C35.164 43.4465 35.1634 43.2961 35.1662 43.1516L35.1645 29.5153C35.197 28.8851 35.1432 28.2533 35.0048 27.6375C34.9378 27.364 34.8155 27.107 34.6454 26.8825C34.4754 26.658 34.2612 26.4707 34.0161 26.332L27.6225 21.6429C26.9063 21.0733 26.6064 21.099 25.6747 21.2708L20.522 22.0921C20.2763 22.1222 20.0333 22.1723 19.7957 22.242C19.7585 22.2737 19.7139 22.3088 19.6677 22.3449C19.6187 22.3832 19.5421 22.4428 19.5043 22.479C19.4814 22.5309 19.4532 22.6103 19.425 22.6869C19.3938 22.7706 19.3626 22.8521 19.3372 22.9117ZM31.4838 44.9184C31.5513 44.9182 31.6173 44.9385 31.6731 44.9764C31.8312 45.0842 31.9888 45.2045 32.1481 45.3265C32.1781 45.349 32.2077 45.372 32.2378 45.395V28.0447L25.6265 23.1951C25.5986 23.1853 25.4082 23.1153 25.3299 23.0863L25.1264 23.0556C25.0826 23.0491 25.0416 23.0425 25.0093 23.0376C24.9059 23.0556 24.6887 23.0901 24.1949 23.1684C24.1218 23.1804 24.0476 23.1919 23.9746 23.2034L28.5401 26.5504C29.1641 26.9025 29.6465 27.4602 29.9053 28.1283C29.9091 28.1447 30.0738 28.9376 30.1236 29.1635C30.1646 29.7988 30.163 30.5396 30.1613 31.1935L30.1607 39.0955C30.1542 39.8976 30.158 40.7102 30.1619 41.526C30.1673 42.7134 30.1733 43.9363 30.1455 45.1274L31.4307 44.9222C31.4483 44.9196 31.4661 44.9183 31.4838 44.9184Z" fill="#0055BA"/>
</g>
<defs>
<clipPath id="clip0_2_527">
<rect width="46.9242" height="47.6245" fill="white"/>
</clipPath>
</defs>
</svg>
