<svg width="49" height="48" viewBox="0 0 49 48" fill="none" xmlns="http://www.w3.org/2000/svg">
<g clip-path="url(#clip0_2_572)">
<path d="M47.4815 36.8371L47.542 36.5548L47.2249 36.0796L47.077 35.8891L33.1936 25.7059L32.6938 25.4509L32.449 25.3747L31.9604 25.3596L1.97483 30.1417L1.50587 30.3098L1.05988 30.7048L0.742755 31.2225L0.651428 31.7245V35.0974L0.793741 35.2835L0.885068 35.7872L14.7685 45.9704L15.0912 46.4371L15.3243 46.5262L15.8358 46.7683L16.325 46.7834L16.558 46.6198L46.543 41.8377L46.9319 41.7139L47.2742 41.4539L47.4815 41.0567L47.5431 40.6409V37.268L47.4815 36.8371Z" fill="white"/>
<path d="M46.9283 35.8221C47.1653 35.9824 47.3593 36.1985 47.4931 36.4514C47.6269 36.7044 47.6962 36.9864 47.6952 37.2725C47.7031 38.2967 47.7111 39.3213 47.6942 40.3453C47.7183 40.7852 47.5672 41.2166 47.274 41.5453C46.9809 41.8741 46.5695 42.0735 46.1298 42.0999C43.8899 42.4484 41.6526 42.8141 39.4142 43.1718C37.185 43.5281 34.9559 43.8838 32.7266 44.2388C30.469 44.5992 28.2114 44.9596 25.9538 45.3201C23.5912 45.6962 21.2284 46.0713 18.8656 46.4455C18.0843 46.5696 17.3037 46.6979 16.5224 46.822C16.4209 46.8381 16.3172 46.84 16.1681 46.8524C16.3515 46.6666 16.4946 46.445 16.5883 46.2014C16.6821 45.9577 16.7245 45.6973 16.7129 45.4366C16.7074 44.9148 16.7045 44.3928 16.7138 43.8712C16.7227 43.3719 16.7867 42.8706 16.7559 42.3746C16.7138 41.9204 16.6334 41.4706 16.5156 41.03C16.4749 40.8577 16.4938 40.8193 16.6651 40.7872C17.9447 40.5479 19.2209 40.2895 20.5008 40.0518C21.8217 39.8065 23.1461 39.5798 24.4683 39.3414C25.4728 39.1602 26.4758 38.9707 27.4804 38.7902C28.6253 38.5845 45.4536 35.777 46.6006 35.5835L46.9283 35.8221Z" fill="#B6DBA8"/>
<path d="M16.3243 47.1199H16.3139L15.8253 47.1052C15.795 47.104 15.7651 47.0991 15.7361 47.0904L15.4915 47.0143C15.4731 47.0084 15.4552 47.0011 15.4379 46.9925L14.9378 46.737L1.00883 36.5254C0.983594 36.5071 0.96112 36.4854 0.942077 36.4608L0.79435 36.2704L0.462767 35.7757C0.437463 35.7379 0.42015 35.6952 0.411879 35.6504L0.321056 35.1596C0.317309 35.1394 0.315482 35.1189 0.315587 35.0983V31.7251C0.315573 31.7051 0.317218 31.6852 0.32051 31.6655L0.41134 31.1632C0.416207 31.136 0.424479 31.1095 0.435958 31.0844L0.712278 30.5345C0.734886 30.4907 0.766819 30.4524 0.805843 30.4223L1.30102 30.0432C1.3288 30.0222 1.35961 30.0056 1.39239 29.9939L1.86132 29.8259C1.88084 29.8188 1.90099 29.8135 1.92149 29.8101L31.9073 25.0279C31.9283 25.0247 31.9496 25.0234 31.9708 25.0241L32.4594 25.0394C32.4896 25.0404 32.5197 25.0454 32.5486 25.0542L32.7932 25.1302C32.8114 25.136 32.8292 25.1434 32.8462 25.1521L33.3463 25.4071C33.3625 25.415 33.3779 25.4246 33.3922 25.4356L47.2759 35.6187C47.3011 35.6369 47.3235 35.6586 47.3426 35.6833L47.4903 35.8737L47.8214 36.3688C47.8467 36.4067 47.864 36.4493 47.8723 36.4941L47.9637 36.9849C47.9675 37.0052 47.9692 37.0257 47.9691 37.0462V40.4189C47.9692 40.4391 47.9675 40.4592 47.9637 40.4791L47.8723 40.9814C47.8677 41.0078 47.8598 41.0335 47.8487 41.058L47.5724 41.6101C47.5493 41.6541 47.5167 41.6926 47.4772 41.7228L46.9864 42.0981C46.9581 42.1205 46.9262 42.1381 46.8923 42.1501L46.4234 42.3181C46.4038 42.3252 46.3837 42.3305 46.3631 42.334L16.3773 47.1161C16.3598 47.1187 16.342 47.12 16.3243 47.1199ZM15.8915 46.4344L16.3029 46.447L46.2265 41.6746L46.6144 41.5357L47.0111 41.2326L47.2179 40.8222L47.2973 40.3888V37.0774L47.2239 36.6846L46.8409 36.133L33.0169 25.9936L32.5667 25.7638L32.3926 25.7097L31.9817 25.6971L2.05828 30.4694L1.66816 30.6089L1.2742 30.9109L1.06573 31.3229L0.987489 31.7552V35.0677L1.06027 35.46L1.44382 36.011L15.2896 46.1668L15.7169 46.3801L15.8915 46.4344Z" fill="#5DA845"/>
<path d="M30.8515 27.6558L30.7507 27.1863L30.5394 26.7498L30.4167 26.4529L30.0996 26.0618L29.8901 25.836L29.4911 25.5267L29.0295 25.315L28.7633 25.1861L28.2837 25.0931L27.9884 25.0527L27.5312 25.0768L27.2427 25.1082L26.79 25.1906L26.2807 25.3144L25.7221 25.4657L25.1455 25.6253L25.1427 25.6265L25.1394 25.6282L25.1366 25.6298L25.1332 25.6326L25.1304 25.6354L25.1282 25.6388L25.1259 25.6422L25.1242 25.6461L25.1231 25.6494L25.1226 25.6528L25.0654 26.1912L24.9915 26.737L24.9186 27.2564L24.8609 27.7376L24.848 28.1819L24.876 28.4884L24.9769 28.9585L25.0923 29.2381L25.3108 29.6914L25.6279 30.0824L25.8381 30.3082L26.237 30.6175L26.5199 30.7548L26.9648 30.9582L27.2926 31.003L27.7397 31.0915L28.0786 31.0545L28.4798 31.0321L28.7947 30.9358L29.1241 30.7789L29.3628 30.6971L29.6234 30.5301L29.8749 30.3267L30.108 30.0942L30.3136 29.8421L30.4845 29.5793L30.6134 29.3165L30.7154 29.0218L30.8207 28.6997L30.8616 28.4027L30.8795 27.9623L30.8515 27.6558Z" fill="white"/>
<path d="M29.9108 25.9147C29.577 25.5805 29.1515 25.353 28.6882 25.2611C28.3847 25.1767 28.0677 25.1513 27.7546 25.1865C27.274 25.2549 26.8054 25.407 26.3316 25.5232C26.206 25.554 26.0799 25.5829 25.9539 25.6126L25.9403 25.6969C26.0511 25.7564 26.1673 25.8054 26.2872 25.8433C26.6141 25.9162 26.9468 25.9624 27.2738 26.035C27.6244 26.0976 27.9507 26.2566 28.2162 26.494C28.4818 26.7314 28.6761 27.038 28.7774 27.3794C29.0362 28.0883 29.11 28.8515 28.9916 29.5969C28.9827 29.8928 28.9052 30.1826 28.7652 30.4435C28.6252 30.7044 28.4265 30.9292 28.1847 31.1002L28.2117 31.1671L29.484 30.7861C29.484 30.7861 31.8906 28.3623 29.9108 25.9147Z" fill="#B6DBA8"/>
<path d="M27.7389 31.4274C27.7235 31.4273 27.7082 31.4264 27.6929 31.4247L26.9012 31.2885C26.8748 31.2835 26.8491 31.2754 26.8246 31.2644L26.0903 30.9202C26.0692 30.9099 26.0492 30.8975 26.0307 30.883L25.6318 30.5733L25.3817 30.3118L25.0496 29.9031C25.0331 29.883 25.0192 29.8609 25.008 29.8374L24.666 29.0856C24.6585 29.0671 24.6525 29.0481 24.648 29.0287L24.5473 28.5587L24.5129 28.2129L24.5244 27.7281L24.788 25.6171C24.7905 25.5968 24.7944 25.5767 24.7996 25.557C24.8058 25.5358 24.8137 25.5151 24.8231 25.4951C24.8632 25.4142 24.9312 25.3505 25.0146 25.3157L26.7102 24.8638L27.4943 24.7423L27.9703 24.7168C27.9914 24.7152 28.0124 24.7161 28.0332 24.7196L28.3287 24.7598L28.8272 24.8561C28.8534 24.861 28.8789 24.8692 28.9032 24.8802L29.6364 25.2238C29.6578 25.234 29.678 25.2464 29.6966 25.261L30.0955 25.5707C30.1098 25.5818 30.1232 25.594 30.1354 25.6074L30.3456 25.8333L30.6777 26.241C30.6942 26.2611 30.7081 26.2831 30.7193 26.3067L31.0612 27.0584C31.069 27.0768 31.075 27.0959 31.0793 27.1154L31.1805 27.5854L31.2139 27.9323L31.1975 28.4159L31.1526 28.7464C31.1498 28.7661 31.1454 28.7855 31.1395 28.8044L30.931 29.426L30.7866 29.7269L30.595 30.0256L30.3685 30.3069L30.1114 30.5646L29.8339 30.7918L29.5434 30.98L29.2485 31.1239L28.5776 31.3537C28.5575 31.3598 28.5368 31.364 28.5159 31.3663L27.7597 31.427C27.7525 31.4274 27.746 31.4274 27.7389 31.4274ZM27.0681 30.6363L27.7515 30.7539L28.4108 30.7014L28.9864 30.505L29.2178 30.3933L29.4417 30.2472L29.6633 30.0651L29.8706 29.8566L30.0522 29.6295L30.2028 29.3953L30.3111 29.1688L30.4911 28.6238L30.5288 28.3563L30.5431 27.9491L30.5168 27.686L30.4287 27.2866L30.131 26.6344L29.6621 26.085L29.312 25.8136L28.6598 25.5083L27.9741 25.3901L27.2787 25.4426L26.8498 25.5214L25.4321 25.8946L25.194 27.7773L25.1837 28.191L25.211 28.4569L25.2991 28.8574L25.4025 29.1108L25.5962 29.5097L26.0837 30.0787L26.4137 30.3298L27.0681 30.6363Z" fill="#5DA845"/>
<path d="M22.0015 21.962L21.9835 21.1378L21.8121 20.6084L21.7348 20.4235L21.4641 19.9556L21.0995 19.5562L20.9604 19.4211L20.5459 19.1343L20.3783 19.0379L19.9575 18.881L19.8063 18.8233L19.6253 18.7768L19.4208 18.7437L19.2017 18.7241L19.1154 18.7544L19.0001 18.7521L18.8858 18.7577L18.777 18.7706L18.5378 18.7566L18.3428 18.7964L18.1742 18.8479L18.038 18.9096L17.592 19.0793L17.4497 19.1808L17.02 19.48L16.9163 19.6189L16.5449 20.029L16.2692 20.5047L16.2395 20.6919L16.068 21.2264L16.0501 22.0511L16.0457 25.3753L16.0501 28.6989L16.068 29.5231L16.1498 29.7198L16.3168 30.2381L16.588 30.7059L16.7511 30.8645L17.0911 31.2399L17.3046 31.3631L17.6732 31.6237L17.8929 31.7071L18.1557 31.7744L18.4263 31.8842L18.6308 31.9178L18.8498 31.9369L19.0762 31.9413L19.3003 31.9301L19.5143 31.9044L19.7088 31.8651L20.0175 31.7469L20.2623 31.6718L20.4596 31.5816L20.8506 31.3104L21.0316 31.181L21.3846 30.795L21.5068 30.6319L21.7824 30.1563L21.9521 29.6329L21.9835 29.4346L22.0015 28.6099L22.006 25.2862L22.0015 21.962Z" fill="white"/>
<path d="M18.7199 18.879C19.2682 18.7838 19.8323 18.8569 20.3383 19.0885C20.8499 19.3032 21.2859 19.6654 21.5907 20.1289C21.8956 20.5924 22.0555 21.1363 22.0501 21.691C22.0628 24.1837 22.0436 26.6764 22.054 29.169C22.0273 29.8291 21.7798 30.4612 21.3513 30.9641C20.9229 31.467 20.338 31.8116 19.6905 31.9428C19.5782 31.9668 19.4631 31.9778 19.2974 32.0026C19.6068 31.7973 19.857 31.5146 20.0231 31.1824C20.1892 30.8503 20.2653 30.4805 20.2439 30.1098C20.257 27.6267 20.2476 25.1434 20.2495 22.6603C20.2254 21.7281 19.9253 20.8239 19.3869 20.0625C19.1523 19.7003 18.9609 19.3101 18.7199 18.879Z" fill="#B6DBA8"/>
<path d="M19.0929 32.2771L18.6015 32.2525L18.1616 32.1633L17.5537 31.9373L17.3376 31.8175L16.9004 31.516L16.7187 31.3464L16.3396 30.9322C16.3232 30.9146 16.3088 30.8951 16.2969 30.8742L16.026 30.4064L15.9297 30.1831L15.748 29.6267C15.7382 29.5955 15.7328 29.5631 15.7322 29.5304L15.7142 28.7058L15.7098 25.3758L15.7322 21.2188L15.7678 20.9751L15.95 20.4011C15.9572 20.3786 15.9668 20.3568 15.9785 20.3363L16.3981 19.6646L16.7724 19.2531C16.788 19.2357 16.8057 19.2201 16.8249 19.2066L17.4006 18.8031C17.4169 18.7918 17.4344 18.7819 17.4525 18.7736L17.65 18.6835L18.2442 18.4746L18.7115 18.3972L18.9593 18.3843L19.4502 18.4086L19.8901 18.4978L20.4985 18.7235L20.7147 18.8434L21.1518 19.1448L21.3335 19.3147L21.7127 19.7286C21.7289 19.7465 21.7431 19.7661 21.7553 19.7869L22.0262 20.2547L22.1225 20.4791L22.3036 21.0342C22.314 21.0653 22.3195 21.0979 22.32 21.1307L22.3375 21.9551V21.9616L22.3424 25.2856L22.32 29.4418L22.2845 29.6864L22.1023 30.2604C22.0949 30.2828 22.0854 30.3044 22.0738 30.3249L21.6531 30.9974L21.2805 31.4078C21.2644 31.4251 21.2466 31.4409 21.2274 31.4548L20.6512 31.858C20.6349 31.8696 20.6175 31.8795 20.5992 31.8876L20.4017 31.9779L19.808 32.1863L19.3402 32.264L19.0929 32.2771ZM16.8599 30.5054L17.3251 30.9984L17.8421 31.3322L18.5102 31.5587L18.8795 31.602L19.083 31.6053L19.6422 31.5357L20.2917 31.289L20.8077 30.9284L21.2382 30.4305L21.4736 30.0196L21.6519 29.3816L21.6656 28.603L21.6705 25.2856L21.6491 21.1945L21.4248 20.5524L21.1923 20.156L20.7261 19.6624L20.2102 19.3287L19.5416 19.1024L19.1728 19.0592L18.9692 19.0562L18.4095 19.1254L17.7595 19.3725L17.2446 19.7328L16.8146 20.2304L16.5787 20.6416L16.4004 21.2793L16.3861 22.0584L16.3817 25.3758L16.4031 29.4669L16.6269 30.1077L16.8599 30.5054Z" fill="#5DA845"/>
<path d="M37.1405 18.9663L37.1001 18.6413L37.0346 18.3208L36.9466 18.0172L36.839 17.7426L36.7163 17.5067L36.4502 17.2182L36.281 16.9801L35.8978 16.7229L35.6904 16.5257L35.2176 16.3391L34.9873 16.2209L34.4601 16.134L33.6633 16.2433L33.4274 16.2293L30.2204 16.7358L27.0155 17.2518L26.2232 17.3964L25.738 17.6479L25.5341 17.7404L25.1268 18.0816L24.8001 18.5057L24.6634 18.6553L24.46 19.1136L24.3715 19.2879L24.3059 19.512L24.2572 19.8896L24.2292 20.0729L24.2202 20.2779L24.2292 20.4964L24.2572 20.7206L24.302 20.9413L24.3631 21.1503L24.437 21.3397L24.567 21.617L24.6897 21.8529L24.8225 22.04L25.1251 22.3796L25.301 22.5471L25.7156 22.834L25.9229 22.9404L26.4188 23.1388L26.946 23.2256L27.1808 23.2396L27.9792 23.1304L31.1852 22.6239L34.3906 22.1073L35.1834 21.9633L35.3997 21.8647L35.872 21.6193L36.2799 21.278L36.4401 21.1021L36.7427 20.7043L36.8553 20.483L36.9382 20.1972L37.1001 19.8476L37.1405 19.5815L37.1539 19.284L37.1405 18.9663Z" fill="white"/>
<path d="M27.6837 23.2372C27.9154 23.0642 28.1033 22.8392 28.2322 22.5804C28.3611 22.3215 28.4275 22.036 28.4259 21.7468C28.4997 20.8461 28.2631 19.9472 27.7552 19.1996C27.5003 18.7713 27.2575 18.3356 27.0208 17.8969C26.9856 17.8405 26.966 17.7759 26.9638 17.7095C26.9617 17.6431 26.9771 17.5774 27.0086 17.5189C27.0401 17.4603 27.0864 17.4112 27.143 17.3764C27.1996 17.3416 27.2644 17.3224 27.3308 17.3207C28.1299 17.1953 28.9266 17.0545 29.7259 16.9304C30.5271 16.8061 31.3308 16.6973 32.1327 16.5768C32.7849 16.4788 33.4385 16.387 34.087 16.2675C34.6746 16.1785 35.2744 16.3091 35.7718 16.6344C36.1999 16.8898 36.5576 17.248 36.8125 17.6765C37.0673 18.1049 37.2113 18.5901 37.2315 19.0882C37.2517 19.5864 37.1473 20.0816 36.9278 20.5293C36.7084 20.977 36.3808 21.3628 35.9748 21.652C35.436 21.9743 34.8288 22.1648 34.2024 22.2078C32.2034 22.5245 30.2046 22.8425 28.206 23.1618C28.0482 23.1868 27.8897 23.2076 27.6837 23.2372Z" fill="#B6DBA8"/>
<path d="M27.1803 23.5758L27.1606 23.5753L26.9259 23.5613L26.3634 23.4702C26.3394 23.4664 26.3159 23.4599 26.2934 23.4508L25.5613 23.1329L25.1093 22.8235L24.8926 22.6229L24.571 22.2637L24.415 22.0471L24.0495 21.2726L23.9275 20.7875L23.8837 20.2921L23.9313 19.7375L23.9735 19.4615L24.0484 19.1934L24.363 18.5034C24.3722 18.4853 24.3831 18.468 24.3953 18.4517L24.8779 17.855L25.3173 17.4827C25.3362 17.467 25.3568 17.4533 25.3786 17.4419L26.0833 17.0903C26.1086 17.0788 26.1353 17.0705 26.1626 17.0655L26.9549 16.9213L34.1796 15.787C34.2011 15.7842 34.223 15.7833 34.2447 15.7843L34.4794 15.7983L35.0414 15.8891C35.0654 15.8929 35.0888 15.8995 35.1114 15.9085L35.844 16.2267L36.296 16.5361L36.5121 16.7369L36.8339 17.0958L36.9898 17.3125L37.3558 18.087L37.4784 18.5713L37.5216 19.0683L37.474 19.6229L37.4318 19.8981L37.3569 20.1662L37.0423 20.8562C37.0331 20.8743 37.0223 20.8916 37.01 20.9079L36.5269 21.5051L36.0875 21.8769C36.0687 21.8924 36.0483 21.906 36.0268 21.9174L35.3215 22.2694C35.2964 22.2809 35.2699 22.2893 35.2427 22.2941L34.4504 22.4383L27.2258 23.5725C27.2107 23.5748 27.1955 23.5758 27.1803 23.5758ZM26.5084 22.8129L27.1656 22.9023L27.9333 22.7972L35.0813 21.64L35.6837 21.338L36.0629 21.0201L36.1921 20.8751L36.4563 20.5257L36.7261 19.9372L36.7769 19.7531L36.8497 19.0675L36.8152 18.6807L36.7201 18.3032L36.418 17.663L36.3086 17.5141L35.8725 17.0556L35.3291 16.7183L34.8964 16.5465L34.2398 16.4574L33.4727 16.5624L26.324 17.7196L25.721 18.0216L25.3418 18.3395L25.2133 18.484L24.949 18.8339L24.6792 19.4223L24.6284 19.6065L24.5556 20.2932L24.5906 20.6789L24.6853 21.0564L24.9873 21.6974L25.0962 21.8454L25.5328 22.3037L26.0762 22.6413L26.5084 22.8129Z" fill="#5DA845"/>
<path d="M14.3361 21.4836L14.2784 20.7278L14.1994 19.9053L14.1153 19.0626L14.1148 19.062L14.1142 19.0609L14.1131 19.0598L14.1108 19.0581L14.1086 19.0559L14.1058 19.0536L14.1024 19.0514L14.0991 19.0486L14.0957 19.0458L14.0923 19.043L14.0895 19.0408L14.0867 19.0385L14.0845 19.0368L14.0834 19.0357L14.0823 19.0352L13.3331 19.1153L12.5801 19.1786L11.8708 19.2341L11.2225 19.2934L10.6382 19.387L10.0852 19.5859L9.58033 19.8902L9.14331 20.2874L8.79033 20.7625L8.53484 21.2976L8.38748 21.8713L8.3533 22.4624L8.43398 23.0479L8.6256 23.6049L8.922 24.1125L8.94833 24.1265L9.31084 24.5506L9.78092 24.8863L9.78764 24.9025L10.3238 25.1546L10.3048 25.1563L10.8712 25.3003L11.4556 25.3294L11.4909 25.3261L12.077 25.2387L12.6345 25.0387L13.1421 24.7344L13.5808 24.3372L13.9327 23.862L14.1853 23.3275L14.3277 22.7538L14.3607 22.1571L14.3361 21.4836Z" fill="white"/>
<path d="M11.8579 25.3357C12.1227 25.1236 12.3328 24.851 12.4706 24.541C12.6084 24.2309 12.6699 23.8923 12.6498 23.5536C12.6736 22.3823 12.2852 21.2397 11.5526 20.3254C11.4297 20.1459 11.3337 19.9496 11.2675 19.7425C11.2027 19.5447 11.2933 19.4162 11.522 19.3948C12.2219 19.3295 12.9211 19.2552 13.6205 19.1842C13.7925 19.1667 13.9645 19.1483 14.1803 19.1257C14.2562 20.0253 14.3553 20.9133 14.3964 21.804C14.4198 22.2652 14.3838 22.7274 14.2892 23.1794C14.1426 23.7389 13.8334 24.2425 13.4007 24.6264C12.9679 25.0102 12.431 25.257 11.8579 25.3357Z" fill="#B6DBA8"/>
<path d="M11.4473 25.6658H11.4391L10.8547 25.6368C10.8323 25.6358 10.8101 25.6323 10.7885 25.6264L10.2222 25.4824C10.2006 25.477 10.1795 25.4695 10.1593 25.46L9.6324 25.2067C9.61594 25.1985 9.57434 25.1755 9.55964 25.1652C9.55578 25.1629 9.51089 25.1312 9.5076 25.1285L9.10489 24.8166L8.6907 24.383C8.6858 24.3773 8.65736 24.3406 8.65295 24.3345L8.33288 23.814C8.32469 23.8002 8.30389 23.7546 8.29787 23.7401L8.08944 23.165C8.0818 23.1443 8.07627 23.1228 8.07305 23.101L7.98494 22.5163C7.98165 22.4945 7.98053 22.4724 7.98165 22.4504L8.00953 21.86C8.01065 21.838 8.01394 21.816 8.0194 21.7946L8.16221 21.2212C8.1676 21.1999 8.17488 21.1791 8.18413 21.1591L8.43633 20.6245C8.44585 20.6044 8.45741 20.5854 8.47078 20.5677L8.82321 20.0927C8.83609 20.075 8.85073 20.0587 8.86698 20.044L9.30519 19.6465C9.32158 19.6317 9.33937 19.6185 9.35828 19.6071L9.86604 19.3026C9.88502 19.2913 9.90498 19.2819 9.92571 19.2744L10.4833 19.075C10.5027 19.0679 10.5229 19.0627 10.5434 19.0596L11.1338 18.9655C11.1415 18.9642 11.1852 18.96 11.1924 18.9592L14.0464 18.7015C14.1103 18.6944 14.1749 18.7061 14.2324 18.7352C14.2373 18.7387 14.2816 18.7647 14.2865 18.7685C14.2941 18.7745 14.3232 18.7975 14.3308 18.8044C14.3469 18.8185 14.3619 18.8338 14.3757 18.8501C14.3993 18.8736 14.418 18.9016 14.4307 18.9324C14.4434 18.9632 14.4498 18.9962 14.4496 19.0295L14.6712 21.4587L14.6963 22.1451L14.664 22.7724C14.6627 22.7938 14.6594 22.8149 14.6542 22.8356L14.5114 23.409C14.506 23.4304 14.4987 23.4511 14.4895 23.4711L14.2373 24.0057C14.2277 24.0256 14.2163 24.0447 14.2033 24.0626L13.851 24.5378C13.8378 24.5554 13.8229 24.5718 13.8066 24.5865L13.3683 24.984C13.3519 24.9987 13.3341 25.0119 13.3153 25.0234L12.8076 25.3277C12.7887 25.339 12.7687 25.3484 12.7479 25.3555L12.1903 25.5553C12.1698 25.5628 12.1485 25.5683 12.1269 25.5717L11.5409 25.6592C11.5098 25.663 11.4786 25.6652 11.4473 25.6658ZM10.9215 24.9666L11.4719 24.9939L11.9934 24.9118L12.4902 24.734L12.941 24.4637L13.3301 24.1108L13.643 23.6889L13.8669 23.2142L13.9943 22.7043L14.0244 22.1394L13.9998 21.4965L13.811 19.4027L11.2536 19.629L10.6796 19.7187L10.1834 19.8963L9.73249 20.1668L9.34294 20.5197L9.03051 20.9414L8.80668 21.416L8.67977 21.9249L8.65512 22.449L8.73286 22.968L8.92273 23.493L9.23404 23.9822L9.55466 24.3198L9.91248 24.592L10.4208 24.8396L10.9215 24.9666Z" fill="#5DA845"/>
<path d="M20.7403 12.757L20.7123 12.5329L20.6674 12.3121L20.6069 12.1031L20.5324 11.9138L20.4024 11.6359L20.2797 11.4005L20.1469 11.2134L19.8444 10.8739L19.6685 10.7058L19.2538 10.4195L18.781 10.2329L18.5507 10.1147L18.0234 10.0278L17.2267 10.1371L14.0207 10.6436L10.8153 11.1596L10.0214 11.3036L9.78664 11.2902L9.30143 11.5412L8.87337 11.8919L8.51927 12.3284L8.36351 12.3995L8.13043 12.8898L8.02341 13.0074L7.92648 13.5089L7.86541 13.6288L7.82059 13.7834L7.88614 14.174L7.87157 14.2675L7.86709 14.3718L7.87157 14.4832L7.88614 14.5975L7.90911 14.7102L7.93993 14.8166L7.92648 15.0441L8.00044 15.2335L8.08448 15.3954L8.17637 15.5243L8.38592 15.9333L8.52431 16.0649L8.86441 16.4409L9.27902 16.7272L9.48633 16.8337L9.98218 17.0326L10.5094 17.1194L10.7442 17.1334L11.5426 17.0236L14.7491 16.5171L17.954 16.0011L18.7462 15.8571L18.9625 15.7585L19.4354 15.5131L19.8433 15.1713L20.0041 14.9959L20.3061 14.5981L20.4187 14.3762L20.598 13.9655L20.6635 13.7409L20.7039 13.4747L20.7403 13.18L20.7498 12.9755L20.7403 12.757Z" fill="white"/>
<path d="M11.7087 17.039C11.9497 16.8512 12.1338 16.6001 12.2403 16.3137C12.3469 16.0272 12.3719 15.7169 12.3123 15.4171C12.2471 14.6027 11.9133 13.833 11.3632 13.2289C10.9186 12.6615 10.5445 12.0389 10.1035 11.388C10.5479 11.3051 10.9269 11.2284 11.308 11.1647C12.2209 11.0122 13.1346 10.8631 14.0488 10.7177C14.965 10.5725 15.8818 10.4313 16.7993 10.2942C17.1027 10.2483 17.4118 10.2315 17.7109 10.1672C18.0068 10.1174 18.3097 10.1282 18.6013 10.199C18.8929 10.2698 19.1671 10.3991 19.4071 10.5791C19.8239 10.8398 20.1696 11.1996 20.4136 11.6264C20.6575 12.0532 20.792 12.5338 20.8051 13.0252C20.8182 13.5166 20.7095 14.0036 20.4886 14.4429C20.2678 14.8821 19.9417 15.2598 19.5394 15.5424C19.1023 15.828 18.6026 16.0034 18.0828 16.0538C16.0266 16.3802 13.9707 16.7083 11.915 17.0381C11.8463 17.0425 11.7774 17.0428 11.7087 17.039Z" fill="#B6DBA8"/>
<path d="M10.7443 17.4692L10.7246 17.4686L10.4898 17.4546L9.92737 17.3641C9.90321 17.36 9.87954 17.3533 9.85678 17.3444L9.12525 17.0262L8.67324 16.7168L8.45661 16.5163L8.13487 16.1571L7.9789 15.9409L7.61345 15.1659L7.49089 14.6817L7.44711 14.1862L7.49523 13.6309L7.53739 13.3551L7.61233 13.0867L7.92693 12.3968C7.93611 12.3786 7.94689 12.3614 7.95922 12.3453L8.44184 11.7478L8.88117 11.376C8.90015 11.3604 8.92067 11.3468 8.94245 11.3355L9.64779 10.9834C9.67286 10.9719 9.69933 10.9637 9.72658 10.9588L10.5188 10.8146L17.7435 9.6804C17.7651 9.67753 17.7869 9.67662 17.8086 9.67767L18.0434 9.6916L18.6053 9.78272C18.6293 9.7865 18.6528 9.79302 18.6754 9.80212L19.4075 10.12L19.8594 10.4292L20.0761 10.6302L20.5537 11.2056L20.9197 11.9804L21.0418 12.4654L21.0856 12.9609L21.0374 13.5162L20.9964 13.7906L20.9209 14.0595L20.6063 14.7495C20.5972 14.7678 20.5863 14.7852 20.574 14.8015L20.0908 15.3984L19.652 15.77C19.633 15.7857 19.6125 15.7995 19.5907 15.811L18.886 16.1626C18.8607 16.1741 18.834 16.1825 18.8066 16.1875L18.0144 16.3317L10.7897 17.4659C10.7747 17.4681 10.7595 17.4692 10.7443 17.4692ZM10.0723 16.7064L10.7295 16.7956L11.496 16.6905L18.6452 15.5333L19.2482 15.2313L19.6268 14.9136L19.756 14.7684L20.0203 14.4193L20.29 13.8306L20.3409 13.6465L20.4137 12.9598L20.3786 12.5741L20.284 12.1965L19.9814 11.5555L19.8725 11.408L19.4365 10.949L18.8931 10.6117L18.4603 10.4402L17.8037 10.3507L17.036 10.4558L9.88794 11.6129L9.285 11.915L8.90583 12.2329L8.77668 12.3778L8.51355 12.7269L8.24321 13.3157L8.19237 13.5001L8.11904 14.1873L8.15406 14.5731L8.24924 14.9498L8.5513 15.591L8.66014 15.7385L9.09681 16.197L9.64008 16.5346L10.0723 16.7064Z" fill="#5DA845"/>
<path d="M29.7596 4.38592L29.7422 3.56174L29.5702 3.03226L29.2917 2.54593L28.9163 2.12179L28.4597 1.77609L28.4132 1.6646L27.9061 1.44496L27.8311 1.37157L27.3178 1.29201L27.259 1.25839L27.1817 1.22869L27.0898 1.20516L26.9856 1.18779L26.8735 1.17827L26.7581 1.17603L26.6438 1.18163L26.5351 1.19508L26.4359 1.21469L26.3497 1.24102L26.2807 1.27296L26.2309 1.30825L25.6986 1.4035L25.642 1.47858L25.1266 1.71334L24.6744 2.04279L24.3035 2.45292L24.2766 2.62101L23.9976 3.11575L23.8261 3.65026L23.8088 4.47501L23.8037 7.79921L23.8088 11.1228L23.8261 11.947L23.9976 12.4765L24.0749 12.662L24.3461 13.1298L24.7108 13.5287L24.8498 13.6637L25.2638 13.9506L25.4314 14.0475L25.651 14.131L26.0034 14.2616L26.1849 14.3081L26.3889 14.3417L26.6085 14.3607L26.8343 14.3652L27.0584 14.354L27.2725 14.3283L27.4674 14.289L27.6355 14.2375L28.0204 14.0957L28.2177 14.0055L28.6087 13.7343L28.7903 13.6049L29.1427 13.2189L29.2648 13.0558L29.5405 12.5802L29.7103 12.0568L29.7422 11.8591L29.7596 11.0343L29.7646 7.71012L29.7596 4.38592Z" fill="white"/>
<path d="M27.4805 14.3393C27.6501 14.1475 27.7795 13.9236 27.8608 13.6809C27.9422 13.4381 27.974 13.1815 27.9543 12.9262C27.9505 11.0234 27.9625 9.12041 27.9568 7.21749C27.9545 6.477 27.9419 5.73532 27.8957 4.99651C27.8266 4.40303 27.6081 3.83678 27.2605 3.35073C26.9443 2.85099 26.5743 2.38533 26.2288 1.90406C26.1954 1.8572 26.1655 1.80807 26.139 1.75701C25.9545 1.40432 26.0057 1.3503 26.3925 1.29995C27.0314 1.18876 27.6892 1.29408 28.2615 1.59921C28.71 1.81041 29.0908 2.14247 29.3611 2.55811C29.6314 2.97374 29.7805 3.45648 29.7915 3.95213C29.8194 6.57911 29.8119 9.20669 29.7852 11.8337C29.765 12.2119 29.66 12.5807 29.4778 12.9127C29.2957 13.2447 29.0412 13.5315 28.7331 13.7517C28.3742 14.0539 27.9423 14.2565 27.4805 14.3393Z" fill="#B6DBA8"/>
<path d="M26.851 14.7002L26.3601 14.6759L25.9202 14.5866L25.3118 14.361L25.0956 14.2411L24.6585 13.9399C24.6429 13.9293 24.6282 13.9173 24.6147 13.9041L24.4762 13.7692L24.0976 13.3558C24.0815 13.3379 24.0672 13.3183 24.0549 13.2975L23.7841 12.8297L23.6878 12.6057L23.5067 12.0503C23.4963 12.0191 23.4908 11.9865 23.4903 11.9537L23.4728 11.1294L23.4679 7.79887L23.4903 3.64267L23.5259 3.39838L23.708 2.82471C23.7152 2.80218 23.7248 2.78044 23.7365 2.75987L24.1561 2.08796L24.5304 1.67677C24.5463 1.65933 24.5639 1.64356 24.5829 1.62971L25.1591 1.22673C25.1755 1.2152 25.1929 1.20522 25.2111 1.19691L25.4081 1.1069L26.0028 0.898166L26.469 0.820748L26.7174 0.807861L27.2088 0.832213L27.6481 0.921397L28.2566 1.1471L28.4727 1.26693L28.9099 1.56787C28.9256 1.57852 28.9402 1.59061 28.9537 1.60398L29.0921 1.73916L29.4707 2.15227C29.4867 2.17011 29.5008 2.18955 29.5128 2.21027L29.7842 2.67781L29.8811 2.90269L30.0622 3.45805C30.0721 3.48922 30.0775 3.52164 30.0781 3.55435L30.0956 4.37867V4.38519L30.1011 7.70887L30.0781 11.8654L30.0425 12.1097L29.8603 12.6833C29.8531 12.7059 29.8435 12.7276 29.8318 12.7482L29.4122 13.4198L29.0379 13.8313C29.0221 13.8487 29.0045 13.8645 28.9854 13.8783L28.4103 14.2813C28.3937 14.2928 28.3761 14.3027 28.3578 14.3112L28.1603 14.4012L27.5661 14.6099L27.0994 14.6873L26.851 14.7002ZM25.0634 13.4026L25.6001 13.7558L26.2688 13.9821L26.6376 14.0253L26.8411 14.0283L27.4014 13.9588L28.0503 13.7126L28.5657 13.3515L28.9958 12.8541L29.2316 12.4426L29.41 11.8052L29.4237 11.0263L29.4291 7.70887L29.4073 3.6178L29.1834 2.97572L28.9504 2.57985L28.505 2.10519L27.9682 1.75228L27.3002 1.52603L26.9302 1.48255L26.7278 1.47982L26.1681 1.54903L25.5186 1.79553L25.0026 2.15665L24.5726 2.65374L24.3367 3.0652L24.1584 3.7029L24.1447 4.48149L24.1398 7.79894L24.1612 11.89L24.3855 12.5318L24.618 12.9285L25.0634 13.4026Z" fill="#5DA845"/>
<path d="M37.4699 9.77775L37.3876 9.20569L37.3203 9.11829L37.1467 8.60338L37.0699 8.5171L36.9651 8.40784L36.8368 8.28009L36.7124 7.97698L36.6374 7.9047L36.5556 7.82794L36.4704 7.75006L36.3847 7.67386L36.3023 7.6027L36.0328 7.54556L35.8826 7.42005L35.751 7.3136L35.6417 7.23011L35.1358 7.12478L35.017 7.04242L34.4528 7.02393L33.8897 7.11974L33.7776 7.05922L33.2252 7.25869L32.7204 7.56292L32.2828 7.96017L32.2324 7.96465L31.8805 8.43978L31.6278 8.97429L31.4849 9.54803L31.453 10.1447L31.4771 10.8182L31.5348 11.574L31.6138 12.3971L31.6973 13.2347L31.6979 13.2398L31.7001 13.242L31.7018 13.2437L31.7046 13.2459L31.7074 13.2482L31.7135 13.2532L31.7169 13.256L31.7208 13.2588L31.7236 13.2611L31.7264 13.2633L31.7275 13.2639L31.7298 13.2661L31.7309 13.2667L32.4851 13.1865L33.2336 13.1232L33.9424 13.0678L34.5906 13.0084L34.6259 13.005L35.217 12.9109L35.7745 12.7114L36.2821 12.4066L36.7203 12.0094L37.0721 11.5343L37.3243 10.9997L37.4677 10.4266L37.4374 10.3576L37.4699 9.77775Z" fill="white"/>
<path d="M35.0718 12.9825C35.2084 12.8938 35.3222 12.7741 35.4039 12.6333C35.4856 12.4924 35.533 12.3343 35.5423 12.1717C35.6555 11.3845 35.5769 10.5816 35.313 9.83142C34.9963 9.08393 34.5989 8.37327 34.1276 7.7122C34.0329 7.54635 33.9663 7.36447 33.8707 7.15468C34.396 7.03135 34.9449 7.05229 35.4592 7.21534C35.9736 7.37841 36.4343 7.67746 36.7925 8.08087C37.1508 8.48435 37.3933 8.97719 37.4944 9.50715C37.5955 10.0372 37.5514 10.5847 37.3668 11.0917C37.1879 11.583 36.8807 12.0175 36.4772 12.3501C36.0736 12.6825 35.5884 12.9009 35.0718 12.9825Z" fill="#B6DBA8"/>
<path d="M31.7309 13.6032C31.6786 13.6032 31.6272 13.591 31.5804 13.5676C31.5627 13.5586 31.5456 13.5481 31.5295 13.5364C31.5187 13.5287 31.5082 13.5204 31.4984 13.5115L31.4912 13.5055C31.4555 13.4774 31.4258 13.4424 31.4039 13.4026C31.382 13.3628 31.3683 13.319 31.3638 13.2737L31.1416 10.8441L31.1165 10.1577L31.1498 9.53008C31.1507 9.50893 31.1539 9.48792 31.1591 9.46747L31.3014 8.89401C31.3064 8.87237 31.3139 8.85129 31.3238 8.8314L31.5766 8.29681C31.586 8.27699 31.5972 8.25801 31.6099 8.24015L31.9623 7.76496C31.9756 7.74738 31.9904 7.73113 32.0066 7.71628L32.4449 7.31902C32.4613 7.30417 32.4791 7.291 32.498 7.27959L33.0052 6.97514C33.0241 6.96372 33.0441 6.95434 33.0649 6.94691L33.6224 6.74724C33.6431 6.73975 33.6646 6.73443 33.6864 6.73134L34.273 6.64408C34.3061 6.63792 34.3399 6.6356 34.3736 6.63722L34.958 6.66621C34.9803 6.66733 35.0025 6.67062 35.0243 6.67609L35.5911 6.82001C35.6128 6.8254 35.6339 6.83311 35.654 6.84298L36.1803 7.09602C36.2056 7.10842 36.2301 7.12222 36.2537 7.13734C36.2564 7.13923 36.2729 7.15044 36.2871 7.1606C36.2942 7.16522 36.3013 7.17019 36.3079 7.17537L36.7083 7.48565L37.0213 7.81146L37.0235 7.81363L37.1209 7.91813C37.1275 7.92527 37.1565 7.9633 37.1625 7.97121L37.4799 8.48885C37.487 8.50062 37.5072 8.54439 37.5133 8.55693L37.7234 9.13802C37.731 9.15868 37.7365 9.18004 37.7398 9.20175L37.8279 9.78613C37.8312 9.80798 37.8322 9.83004 37.8312 9.8521L37.8032 10.4425C37.8022 10.4646 37.7989 10.4864 37.7934 10.5079L37.6506 11.0813C37.6452 11.1026 37.6379 11.1234 37.6287 11.1434L37.3765 11.6782C37.3669 11.6981 37.3556 11.7171 37.3425 11.7349L36.9907 12.2098C36.9774 12.2276 36.9624 12.2441 36.9458 12.259L36.5071 12.6566C36.491 12.6713 36.4733 12.6845 36.4545 12.6957L35.9473 12.9999C35.9284 13.0113 35.9085 13.0207 35.8877 13.0281L35.3301 13.2278C35.3106 13.2348 35.2904 13.2401 35.2699 13.2434L34.679 13.3375C34.6713 13.3386 34.6287 13.3427 34.621 13.3435L31.7665 13.6013C31.7547 13.6026 31.7428 13.6032 31.7309 13.6032ZM31.819 9.5985L31.7878 10.1637L31.813 10.8061L32.0017 12.9L34.5597 12.6738L35.1337 12.5841L35.6299 12.4062L36.0803 12.1359L36.4698 11.783L36.7822 11.3615L37.0061 10.8865L37.133 10.3777L37.1576 9.85343L37.0793 9.33475L36.8906 8.8092L36.548 8.28834L36.5333 8.27328L36.2581 7.98249L35.8986 7.70893L35.8975 7.70781L35.3924 7.46317L34.8913 7.33597L34.3408 7.30865L33.8194 7.39104L33.3225 7.56886L32.8723 7.83913L32.4826 8.19204L32.1702 8.61415L31.9459 9.08857L31.819 9.5985Z" fill="#5DA845"/>
<path d="M21.0273 4.49476L20.9265 4.02468L20.7147 3.58877L20.5925 3.29182L20.2754 2.90075L19.8726 2.58698L19.6664 2.36567L19.2047 2.15388L18.6988 2.04855L18.167 2.05247L17.9631 1.95386L17.4706 2.08945L17.2734 2.06255L17.0465 2.08721L16.7075 2.33149L16.5372 2.3836L16.359 2.46876L16.1797 2.58362L16.0066 2.72369L15.8458 2.88394L15.704 3.05763L15.5863 3.23859L15.4973 3.41957L15.4407 3.59382L15.2076 3.91934L15.1751 4.15298L15.0417 4.58048L15.0658 4.84102L15.0518 5.32735L15.1527 5.79687L15.2675 6.07702L15.4866 6.53029L15.8032 6.92137L16.0138 7.14717L16.4128 7.45643L16.6952 7.5937L17.14 7.79708L17.6196 7.89009L17.9149 7.93043L18.3721 7.90634L18.6607 7.87496L19.1134 7.7926L19.6227 7.66878L20.1807 7.5175L20.7578 7.35725L20.7606 7.35669L20.7634 7.35501L20.7668 7.35279L20.7696 7.35055L20.7729 7.34775L20.7752 7.34439L20.7774 7.34103L20.7791 7.33711L20.7802 7.33374L20.7808 7.33038L20.8379 6.79194L20.904 6.30337L20.9528 5.95992L20.9847 5.72684L21.0424 5.24555L21.0553 4.80124L21.0273 4.49476Z" fill="white"/>
<path d="M18.9513 7.84911C19.1009 7.65413 19.2104 7.43149 19.2734 7.19391C19.3365 6.95641 19.3517 6.70877 19.3185 6.46525C19.2774 5.47557 18.9296 4.52322 18.323 3.74008C17.9892 3.29878 17.6429 2.86677 17.3018 2.43098C17.148 2.23462 17.1974 2.11819 17.4381 2.06862C17.8614 1.96748 18.302 1.96206 18.7278 2.05276C19.1535 2.14346 19.5536 2.32799 19.8991 2.59291C20.371 2.94363 20.7312 3.42365 20.936 3.97491C21.1408 4.52609 21.1814 5.1249 21.0528 5.69871C20.9755 6.20374 20.9228 6.71255 20.8502 7.21849C20.8398 7.29105 20.7942 7.40264 20.7416 7.41832C20.1639 7.59033 19.5815 7.74679 19.0004 7.90752L18.9513 7.84911Z" fill="#B6DBA8"/>
<path d="M17.9147 8.266C17.8996 8.26593 17.8845 8.26488 17.8694 8.26299L17.076 8.1267C17.0497 8.12173 17.0242 8.11353 16.9999 8.1024L16.2657 7.75873C16.2446 7.74843 16.2246 7.73611 16.206 7.72182L15.8071 7.4124L15.5571 7.14973L15.2249 6.74156C15.2085 6.72153 15.1945 6.69961 15.1834 6.67615L14.8414 5.9241C14.8337 5.90561 14.8277 5.88649 14.8233 5.86695L14.7227 5.39694L14.6887 5.05054L14.7057 4.56631L14.7494 4.23693C14.7524 4.21718 14.7569 4.19764 14.7632 4.17866L14.9716 3.55653L15.1171 3.25509L15.3076 2.95742L15.5346 2.6759L15.7907 2.41792L16.0686 2.19112L16.3592 2.00263L16.6546 1.859L17.3249 1.62919C17.3451 1.62301 17.3658 1.6187 17.3867 1.6163L18.1429 1.55584C18.165 1.55411 18.1872 1.55485 18.2092 1.55803L19.0025 1.69428C19.0287 1.69927 19.0543 1.70744 19.0785 1.71862L19.8128 2.06279C19.8339 2.07288 19.854 2.08516 19.8725 2.09945L20.2714 2.40886C20.2856 2.42006 20.2989 2.43232 20.3113 2.44552L20.5214 2.67122L20.8529 3.0794C20.8695 3.0995 20.8835 3.12155 20.8946 3.14506L21.2365 3.89655C21.2442 3.91497 21.2503 3.93402 21.2546 3.95349L21.3559 4.42351L21.3897 4.77039L21.3782 5.25462L21.1152 7.36562C21.1129 7.38817 21.1082 7.41044 21.1014 7.43208C21.096 7.44441 21.0708 7.50513 21.0637 7.51661C21.0537 7.53265 21.0429 7.54806 21.0309 7.56256C21.0133 7.5835 20.9934 7.60248 20.9717 7.61922C20.9352 7.64191 20.897 7.66166 20.8574 7.67833L19.193 8.11879L18.4088 8.24023L17.9323 8.26537L17.9147 8.266ZM17.2434 7.47424L17.9285 7.59239L18.6239 7.54015L19.0534 7.46136L20.4689 7.08817L20.7085 5.20518L20.719 4.7912L20.6921 4.52478L20.604 4.12536L20.3064 3.47263L19.838 2.92379L19.4878 2.65213L18.8351 2.34682L18.1517 2.2289L17.4918 2.28143L16.9168 2.47731L16.6847 2.5892L16.461 2.73557L16.2394 2.91723L16.0326 3.12624L15.8498 3.353L15.7005 3.58664L15.591 3.81454L15.4116 4.35872L15.3749 4.62598L15.3595 5.03387L15.3863 5.29623L15.4745 5.69592L15.5779 5.94931L15.7715 6.34817L16.2596 6.91777L16.589 7.16836L17.2434 7.47424Z" fill="#5DA845"/>
</g>
<defs>
<clipPath id="clip0_2_572">
<rect width="48.3249" height="46.9242" fill="white" transform="translate(0.046875 0.350098)"/>
</clipPath>
</defs>
</svg>
