<svg width="55" height="47" viewBox="0 0 55 47" fill="none" xmlns="http://www.w3.org/2000/svg">
<g clip-path="url(#clip0_2_600)">
<mask id="mask0_2_600" style="mask-type:luminance" maskUnits="userSpaceOnUse" x="0" y="0" width="55" height="47">
<path d="M55 0.700195H0.371826V46.924H55V0.700195Z" fill="white"/>
</mask>
<g mask="url(#mask0_2_600)">
<path d="M4.57928 1.1665L3.52202 4.10691L0.903229 5.58719L3.71364 6.30772L4.97597 9.17694L6.13297 6.03822L8.64755 4.69633L5.88196 3.84469L4.57928 1.1665Z" fill="white"/>
<path d="M6.53088 5.235C6.39177 5.16713 6.30432 5.11531 6.21059 5.08029C5.67007 4.87837 5.70521 4.8769 5.65887 4.29974C5.61764 3.7863 5.48424 3.28036 5.3942 2.7706C5.31501 2.38245 5.27145 1.98787 5.26405 1.5918C5.45211 2.09037 5.60645 2.601 5.72604 3.12026C5.73161 3.26012 5.76522 3.39746 5.82489 3.52409C5.88456 3.65071 5.96906 3.7641 6.07338 3.85746C6.17771 3.95082 6.29972 4.02225 6.43218 4.0675C6.56465 4.11274 6.70486 4.13095 6.84451 4.121C7.37371 4.1806 7.8963 4.28881 8.40567 4.44408C8.59322 4.51923 8.77182 4.61511 8.93801 4.73004C8.75347 4.84476 8.63665 4.93321 8.50715 4.99526C7.84384 5.31309 7.18132 5.63294 6.51028 5.93382C6.35671 5.99671 6.22025 6.09518 6.11207 6.22104C6.0039 6.34689 5.9271 6.49663 5.88797 6.65792C5.6799 7.41711 5.43286 8.16501 5.14783 8.89878C5.20837 8.60098 5.25036 8.29794 5.33323 8.00652C5.56302 7.34974 5.72219 6.67032 5.80806 5.97983C5.81844 5.82442 6.04502 5.67889 6.18166 5.53811C6.2778 5.43908 6.39023 5.35581 6.53088 5.235Z" fill="#F5A2C5"/>
<path d="M4.96322 9.5129C4.79552 9.5129 4.72111 9.41877 4.43139 9.0522C4.41209 9.02727 4.39617 8.99982 4.38406 8.97068C4.35588 8.90121 3.74253 7.3938 3.46073 6.6026C2.94586 6.50301 1.69862 6.24037 1.10467 6.11508C1.06129 6.10611 1.0201 6.08874 0.983459 6.06381C0.946816 6.03895 0.915468 6.00708 0.891194 5.97003C0.866926 5.93298 0.850216 5.89145 0.842028 5.84796C0.833848 5.8044 0.834346 5.75972 0.843499 5.71636C0.85266 5.67301 0.870288 5.6319 0.895382 5.59541C0.920476 5.55892 0.952531 5.52776 0.989721 5.50366C1.0269 5.47964 1.06848 5.46311 1.11205 5.4552C1.15562 5.44721 1.20034 5.44798 1.24362 5.45737C2.14206 5.64724 3.61774 5.95477 3.75207 5.97333C3.81527 5.98166 3.87494 6.00729 3.92452 6.04735C3.97409 6.08741 4.01165 6.14036 4.03304 6.20038C4.21387 6.74316 4.71206 7.98744 4.91696 8.49521C5.00096 8.23313 5.08795 7.91195 5.15607 7.66021C5.42993 6.64742 5.61842 6.01493 5.9251 5.77365C6.32189 5.54554 6.73398 5.34517 7.1584 5.17393C7.66694 4.97909 8.15243 4.72864 8.60592 4.42707C8.64129 4.40066 8.68149 4.3814 8.72428 4.37055C8.76707 4.35962 8.81154 4.35724 8.85525 4.36355C8.89895 4.36985 8.94097 4.3847 8.97893 4.40725C9.01689 4.4298 9.05002 4.45956 9.07649 4.49493C9.10289 4.5303 9.12215 4.5705 9.13301 4.61329C9.14393 4.65609 9.14632 4.70056 9.14001 4.74426C9.13371 4.78796 9.11886 4.82999 9.09631 4.86795C9.07376 4.90591 9.04399 4.93903 9.00863 4.96551C8.51368 5.30028 7.98204 5.57727 7.42406 5.79116C7.04011 5.94566 6.66646 6.1246 6.30538 6.3268C6.08455 6.81026 5.91678 7.31627 5.80501 7.83589C5.70957 8.38826 5.51365 8.9185 5.22693 9.40021C5.16817 9.46626 5.08565 9.50639 4.9974 9.51185C4.98565 9.5129 4.97417 9.5129 4.96322 9.5129Z" fill="#ED1E71"/>
<path d="M1.17414 6.12267C1.10232 6.12281 1.03239 6.09977 0.974677 6.05705L0.929266 6.0242C0.823371 5.94702 0.622038 5.79658 0.585101 5.75939C0.553823 5.72781 0.529093 5.69041 0.512327 5.6493C0.495567 5.60818 0.487107 5.56413 0.487436 5.51973C0.487702 5.45614 0.503285 5.39352 0.532854 5.33728C0.562431 5.28098 0.605125 5.23265 0.65733 5.19637C1.34449 4.79871 2.05304 4.43921 2.77975 4.11957C3.38874 3.84818 3.38874 3.84818 3.60186 3.10509C3.73153 2.65316 3.92769 1.97031 4.31808 0.902806C4.33744 0.849852 4.36981 0.802626 4.41221 0.765465C4.46166 0.721629 4.52094 0.690344 4.58504 0.674257C4.64913 0.658162 4.71615 0.657742 4.78044 0.673017C4.87647 0.707489 4.99603 0.750169 5.38916 1.46421C5.65235 2.16345 6.03316 3.18171 6.18281 3.5702C6.31413 3.59542 6.48922 3.62217 6.67087 3.65011C7.89456 3.83942 8.85125 4.02544 9.10898 4.54798C9.14715 4.62621 9.15283 4.71627 9.12488 4.79871C9.09687 4.88107 9.03748 4.94907 8.9596 4.98787C8.88032 5.0273 8.78885 5.03452 8.70432 5.00797C8.61978 4.9815 8.54883 4.9233 8.50625 4.84563C8.36562 4.59231 7.0599 4.3904 6.56828 4.3149C6.32489 4.28303 6.08328 4.23884 5.84438 4.18246C5.79711 4.16922 5.75332 4.14576 5.71612 4.11368C5.67892 4.08161 5.64921 4.04183 5.62907 3.997C5.56232 3.84818 4.90984 2.09347 4.77962 1.74329C4.77032 1.72687 4.76046 1.70991 4.75034 1.69295C4.49619 2.42614 4.35091 2.93224 4.24832 3.29062C3.96543 4.27609 3.89842 4.35706 3.05333 4.7335C2.69877 4.89164 2.18936 5.1187 1.40912 5.54606C1.45699 5.59271 1.48985 5.65259 1.50349 5.71807C1.51713 5.78348 1.51094 5.85156 1.48572 5.91347C1.46048 5.97538 1.41735 6.0284 1.36185 6.06566C1.30635 6.10292 1.241 6.12274 1.17414 6.12267Z" fill="#ED1E71"/>
<path d="M50.7649 2.35278C50.99 3.08864 51.2018 3.75965 51.3974 4.43536C51.4111 4.51324 51.4505 4.58426 51.5092 4.63721C51.5679 4.69015 51.6427 4.72188 51.7216 4.72741C52.3577 4.83317 52.9941 4.94158 53.6231 5.08208C53.8655 5.15954 54.1 5.2599 54.3234 5.3819L54.3184 5.47708C54.1934 5.55258 54.0737 5.63886 53.9427 5.70183C53.2619 6.02917 52.5801 6.35456 51.8946 6.67211C51.7745 6.72456 51.6679 6.8037 51.5828 6.90351C51.4978 7.00331 51.4366 7.12111 51.4038 7.24808C51.1794 8.00942 50.946 8.76932 50.7033 9.5276C50.7463 8.74123 50.3211 8.06763 50.1963 7.32849C50.1751 7.14177 50.0914 6.96773 49.9586 6.83466C49.8259 6.70152 49.6521 6.61727 49.4654 6.59556C49.2703 6.53315 49.0788 6.45934 48.8923 6.37438C49.2267 6.10404 49.5367 5.86298 49.8345 5.60763C49.9582 5.51882 50.0574 5.40018 50.1229 5.26277C50.3305 4.64204 50.534 4.01795 50.6909 3.38321C50.7447 3.04248 50.7695 2.69774 50.7649 2.35278Z" fill="#F5A2C5"/>
<path d="M50.1571 2.35278C50.1571 2.35278 49.9316 4.89263 48.1012 5.298C46.2709 5.7033 46.8329 6.34623 46.8329 6.34623C46.8329 6.34623 48.56 6.41935 49.0128 7.01024C49.5288 7.94366 49.9671 8.91793 50.3231 9.9233C50.3231 9.9233 50.884 7.27575 51.5458 6.77562C52.293 6.28789 53.0716 5.85002 53.8765 5.46489C52.8893 5.3515 51.9866 4.85362 51.3641 4.07909C50.9053 3.54527 50.501 2.96699 50.1571 2.35278Z" fill="white"/>
<path d="M50.4732 10.1485C50.3993 10.1456 50.3269 10.1268 50.2609 10.0932C50.1961 10.0646 50.1421 10.0161 50.1066 9.95485C50.0759 9.90121 49.2776 8.08797 48.9778 7.27433C48.2955 7.10582 46.3427 6.57067 46.2398 6.51815C46.1843 6.4902 46.1376 6.44734 46.1051 6.39439C46.0725 6.34144 46.0554 6.28051 46.0554 6.21832V6.18498C46.0554 6.12559 46.071 6.06732 46.1008 6.01599C46.1306 5.96465 46.1734 5.92214 46.225 5.89279C46.8987 5.50423 47.5926 5.15188 48.3037 4.83735C48.9111 4.5654 48.9111 4.5654 49.1184 3.83934C49.2459 3.39503 49.438 2.72366 49.8226 1.67312C49.8426 1.6186 49.8764 1.57017 49.9206 1.53249C49.9785 1.48177 50.0501 1.4493 50.1265 1.43918C50.2027 1.42906 50.2804 1.44172 50.3495 1.47557L50.4064 1.51115C50.436 1.52971 50.4623 1.55279 50.4847 1.57954C50.8462 2.30374 51.1694 3.04653 51.4526 3.80481C51.5374 4.00399 51.6102 4.17522 51.66 4.29233C52.6148 4.49368 53.554 4.76262 54.4707 5.09718C54.5098 5.12989 54.5409 5.171 54.5616 5.21744C54.5823 5.26386 54.5923 5.31444 54.5906 5.36528C54.5878 5.45136 54.5599 5.5347 54.5101 5.60495C54.0132 5.98321 53.4601 6.28121 52.8708 6.4881C52.4908 6.64631 52.1209 6.82792 51.7634 7.032C51.5761 7.48261 51.4264 7.94797 51.3158 8.42337C51.2119 8.98962 51.013 9.53422 50.7276 10.0342C50.6686 10.101 50.5856 10.1417 50.4967 10.1475C50.4885 10.148 50.4809 10.1485 50.4732 10.1485ZM47.2264 6.10837C48.0066 6.32555 49.1474 6.63525 49.2782 6.65717C49.3399 6.66746 49.3978 6.69394 49.446 6.73379C49.4943 6.77364 49.5311 6.82553 49.5529 6.88422C49.6995 7.32524 50.1459 8.3719 50.4381 9.04326C50.5186 8.78504 50.6017 8.4841 50.668 8.24443C50.7735 7.64433 50.9879 7.06856 51.3005 6.54553C51.7052 6.27498 52.1389 6.05037 52.5934 5.87585C52.8506 5.75931 53.2008 5.60116 53.4897 5.45885C52.7958 5.26135 51.7213 4.98176 51.3558 4.91285C51.3019 4.90248 51.2513 4.87916 51.2084 4.84498C51.1655 4.81074 51.1316 4.76661 51.1095 4.7164C51.0877 4.66492 50.9782 4.40726 50.8338 4.06744C50.662 3.66256 50.4054 3.05794 50.2089 2.5967C49.9889 3.24179 49.8587 3.6959 49.7652 4.02423C49.4877 4.99381 49.421 5.07365 48.5789 5.45122C48.2714 5.58856 47.8458 5.77899 47.2264 6.10837Z" fill="#ED1E71"/>
<path d="M7.47609 18.7737C7.47609 18.7737 6.33361 40.2983 7.53842 41.6573C8.74319 43.0163 43.2188 36.6505 43.2188 36.6505L43.7223 13.1169L7.47609 18.7737Z" fill="white"/>
<path d="M8.24182 12.5456C8.24182 12.5456 7.19217 13.4519 7.53866 17.0405L43.7225 11.2697L43.3134 7.23169L8.24182 12.5456Z" fill="white"/>
<path d="M5.6749 10.6134C5.6749 10.6134 4.52335 11.341 4.88097 15.0908L40.857 9.52801L40.8531 5.81917C40.8529 5.70494 40.828 5.59211 40.78 5.48846C40.732 5.38481 40.662 5.29285 40.575 5.21889C40.4879 5.14493 40.3859 5.09079 40.2758 5.06012C40.1658 5.02951 40.0504 5.02314 39.9376 5.04149L5.6749 10.6134Z" fill="white"/>
<path d="M4.88061 16.9387V38.8106C4.88061 38.8106 4.83227 39.7565 6.10815 40.2064L42.0027 35.0772L40.8522 11.7271L4.88061 16.9387Z" fill="white"/>
<path d="M43.2729 13.0591C40.9869 13.4233 38.7009 13.7931 36.415 14.1517C31.7253 14.8968 27.0394 15.642 22.3573 16.3872C17.7629 17.1156 13.1686 17.8477 8.57421 18.5835C8.20442 18.6452 7.84023 18.7124 7.47604 18.774C7.47604 18.8189 7.48165 18.8581 7.48165 18.8973C7.64952 18.9085 7.81803 18.9085 7.98591 18.8973C10.0926 18.5667 12.1974 18.2325 14.3004 17.8944C16.8049 17.4966 19.3056 17.0988 21.8026 16.701C23.0633 16.4993 24.3202 16.2995 25.5734 16.1015C25.7359 16.0735 25.8871 16.023 25.9039 16.292C25.9656 17.222 26.0888 18.1521 26.0944 19.0822C26.1056 20.1187 26.044 21.1609 25.9656 22.1918C25.8871 23.2227 25.7639 24.2537 25.6238 25.2734C25.3635 27.1176 24.9378 28.9347 24.3519 30.7026C23.9093 32.0305 23.4331 33.3528 22.8672 34.6302C22.234 36.059 21.4889 37.4373 20.7773 38.8324C20.5308 39.3142 20.2394 39.7793 19.9369 40.3059C20.1218 40.2891 20.2226 40.2835 20.3235 40.2667C22.4862 39.9249 24.647 39.5813 26.806 39.2358C31.9214 38.4178 37.0369 37.5979 42.1523 36.7761C42.6218 36.7389 43.0574 36.5167 43.3631 36.1585C43.6689 35.8002 43.8198 35.3351 43.7828 34.8655C43.7884 27.7499 43.7884 20.6324 43.7828 13.5129C43.7828 13.0983 43.6819 12.9975 43.2729 13.0591ZM34.9582 29.2122C34.8557 29.611 34.7208 30.0008 34.5548 30.3776C34.5055 30.4753 34.4217 30.5512 34.3195 30.5905C34.0057 30.7418 33.6808 30.8651 33.2661 31.0388C33.6527 31.1396 33.9441 31.2069 34.2354 31.2909C34.3251 31.3133 34.4652 31.3637 34.4764 31.4254C34.5716 31.9352 34.6501 32.4563 34.7229 32.9718C34.7285 33.0054 34.6837 33.0502 34.6164 33.1847C34.504 33.0368 34.4082 32.8771 34.3307 32.7084C34.2145 32.4107 34.1336 32.1004 34.0898 31.784C34.0505 31.4646 33.8769 31.3693 33.6079 31.3189C33.3051 31.2633 33.0059 31.1903 32.7115 31.1004C32.57 31.0289 32.4367 30.9425 32.3136 30.8427C32.8403 30.6242 33.2885 30.4561 33.7144 30.2432C33.8951 30.1448 34.0402 29.9918 34.129 29.8061C34.3363 29.3411 34.4932 28.8536 34.6725 28.3606C35.1207 28.5623 35.0254 28.9209 34.9582 29.2122Z" fill="#F5A2C5"/>
<path d="M34.3201 30.5908C34.0063 30.7421 33.6814 30.8653 33.2668 31.039C33.6534 31.1399 33.9447 31.2071 34.2361 31.2912C34.3257 31.3136 34.4658 31.364 34.477 31.4256C34.5722 31.9355 34.6507 32.4566 34.7235 32.972C34.7291 33.0056 34.6843 33.0505 34.6171 33.1849C34.5047 33.0372 34.4088 32.8774 34.3313 32.7087C34.2151 32.411 34.1343 32.1007 34.0904 31.7842C34.0512 31.4648 33.8775 31.3696 33.6085 31.3192C33.3058 31.2636 33.0065 31.1906 32.7121 31.1007C32.5707 31.0291 32.4373 30.9427 32.3143 30.8429C32.8409 30.6244 33.2892 30.4563 33.715 30.2434C33.8958 30.145 34.0408 29.9921 34.1296 29.8064C34.3369 29.3413 34.4938 28.8539 34.6731 28.3608C35.1213 28.5625 35.0261 28.9211 34.9588 29.2125C34.8564 29.6113 34.7214 30.0011 34.5554 30.3779C34.5061 30.4756 34.4223 30.5515 34.3201 30.5908Z" fill="#F5A2C5"/>
<path d="M43.7824 11.3418L25.6508 14.2345C25.504 13.5562 25.3741 12.8818 25.2095 12.216C25.0389 11.5258 24.8361 10.8435 24.644 10.1588C24.5912 9.97081 24.4688 9.93201 24.2755 9.96373C22.8852 10.1922 21.4928 10.4081 20.1014 10.6294C17.2842 11.0774 14.4656 11.5164 11.651 11.9799C10.6251 12.1488 9.60925 12.3794 8.58714 12.5731C8.4713 12.5793 8.35504 12.5699 8.24166 12.5453L8.22562 12.4302C8.50478 12.3261 8.79067 12.2407 9.08132 12.1748C13.5031 11.4598 17.9259 10.7509 22.3495 10.0478C27.5989 9.21155 32.8485 8.37749 38.0985 7.54549C39.3202 7.35114 40.5394 7.13998 41.7627 6.95677C42.2957 6.84429 42.8515 6.94269 43.3134 7.23145C43.448 7.30898 43.5609 7.41929 43.6417 7.55208C43.7224 7.68486 43.7683 7.83597 43.7752 7.99124C43.7939 9.09171 43.7824 10.1927 43.7824 11.3418Z" fill="#F5A2C5"/>
<path d="M8.94725 42.3782C8.93219 42.3782 8.91713 42.3773 8.90214 42.3755L8.19793 42.2918C8.12404 42.2831 8.05429 42.2529 7.99742 42.2048C7.81518 42.0516 7.38544 41.6927 7.20347 41.5493C7.14871 41.5062 7.10675 41.4488 7.08224 41.3835C6.91282 40.8896 6.84146 40.3673 6.87213 39.846L6.86912 18.6776C6.86919 18.5868 6.90162 18.4989 6.96052 18.4298C7.01949 18.3607 7.10115 18.3149 7.19087 18.3006L43.3752 12.5298C43.4251 12.5217 43.4761 12.5237 43.5252 12.5355C43.5744 12.5473 43.6207 12.5688 43.6614 12.5987L43.9486 12.8094C44.0145 12.8577 44.0631 12.926 44.0874 13.0041C44.1116 13.0822 44.1101 13.166 44.0832 13.2432C44.0291 13.5994 44.0641 16.06 44.1013 18.6623C44.2917 31.9954 44.115 36.2069 43.3451 36.6867C43.2617 36.7415 43.163 36.7686 43.0634 36.7639L42.4675 37.0243C42.4378 37.0374 42.4065 37.0466 42.3745 37.0517L9.00748 42.3733C8.98759 42.3766 8.96742 42.3782 8.94725 42.3782ZM8.40125 41.5471L8.93961 41.6106L42.2059 36.3053C42.7159 36.0821 42.8718 36.0143 42.9457 35.994C43.5656 34.6612 43.4124 23.9051 43.3374 18.6732C43.2871 15.1457 43.2767 13.8457 43.3133 13.3127L7.63302 19.0031V39.8936C7.61341 40.2743 7.65837 40.6556 7.76595 41.0213C7.94545 41.1663 8.22258 41.3972 8.40125 41.5471Z" fill="#ED1E71"/>
<path d="M4.88069 15.4728C4.77941 15.4728 4.68227 15.4325 4.61065 15.3609C4.53902 15.2893 4.49879 15.1922 4.49878 15.0909V11.6422C4.49877 11.622 4.50041 11.6018 4.5037 11.5819C4.645 11.0405 4.99302 10.5761 5.473 10.2884C5.49833 10.273 5.52531 10.2603 5.55344 10.2507L6.34737 9.98483C6.36727 9.97825 6.38767 9.97328 6.40837 9.97005L39.4167 4.70527C39.4404 4.70142 39.4644 4.69974 39.4883 4.7003L39.6503 4.70142C40.1187 4.70142 40.8557 4.69869 41.1703 5.17199C41.212 5.23475 41.2343 5.30842 41.2343 5.38378V7.23645C41.2343 7.33772 41.1941 7.43486 41.1225 7.50651C41.0508 7.57808 40.9537 7.61835 40.8524 7.61835C40.7512 7.61835 40.654 7.57808 40.5824 7.50651C40.5107 7.43486 40.4705 7.33772 40.4705 7.23645V5.54844C40.2072 5.46047 39.9276 5.43204 39.6519 5.4653C39.5972 5.46587 39.5464 5.46587 39.5031 5.46474L6.55992 10.7191L5.84123 10.9598C5.5761 11.1306 5.37317 11.3823 5.26261 11.6777V14.6433L7.34892 14.3106C7.39843 14.3028 7.44899 14.3047 7.49774 14.3163C7.54655 14.328 7.5925 14.3491 7.63312 14.3785C7.67374 14.4079 7.70813 14.445 7.73439 14.4877C7.76058 14.5305 7.77816 14.5779 7.78608 14.6275C7.79399 14.677 7.7921 14.7275 7.78041 14.7763C7.76878 14.825 7.74763 14.871 7.71821 14.9117C7.6888 14.9522 7.65168 14.9867 7.60896 15.0129C7.56623 15.0391 7.51882 15.0567 7.4693 15.0646L4.94088 15.4679C4.92098 15.4711 4.90086 15.4728 4.88069 15.4728Z" fill="#ED1E71"/>
<path d="M7.53849 17.4223C7.43722 17.4223 7.34008 17.382 7.26843 17.3104C7.19686 17.2388 7.15659 17.1417 7.15659 17.0404V15.3157C7.15659 14.3582 7.15659 13.8357 7.19265 13.5512L7.1596 13.5473C7.29701 13 7.64586 12.5295 8.12967 12.2391C8.15523 12.2233 8.18247 12.2104 8.21091 12.2008L9.00484 11.9343C9.02487 11.9278 9.04532 11.9228 9.06612 11.9195L42.0745 6.65527L43.0118 6.629C43.0896 6.62725 43.1661 6.64917 43.2312 6.69197L43.7149 7.01147C44.0459 7.21668 44.1493 7.76712 44.1055 10.4969C44.1006 10.822 44.0952 11.1578 44.1022 11.2312C44.112 11.3281 44.0844 11.4252 44.0251 11.5024C43.9656 11.5796 43.8789 11.6311 43.7827 11.6465L7.59872 17.4173C7.57876 17.4206 7.55866 17.4223 7.53849 17.4223ZM8.50009 12.9094C8.23227 13.0819 8.02797 13.3369 7.91795 13.636C7.91984 13.6507 7.92012 15.672 7.9204 16.5928L43.3357 10.9445C43.3368 10.8241 43.339 10.6737 43.3417 10.4844C43.3885 9.52706 43.3557 8.56749 43.2438 7.6156L42.9106 7.39562L42.144 7.41425L9.21775 12.6686L8.50009 12.9094Z" fill="#ED1E71"/>
<path d="M6.11535 40.3998C5.90177 40.4046 5.68849 40.3815 5.48092 40.3309C5.4262 40.3152 5.37565 40.2875 5.33292 40.2499L4.8175 39.7974C4.76096 39.7479 4.72032 39.6828 4.70068 39.6103L4.51191 38.9099C4.50321 38.8774 4.4988 38.844 4.49878 38.8103V16.9388C4.4988 16.848 4.53121 16.7601 4.59018 16.6911C4.64914 16.6219 4.7308 16.5761 4.8205 16.5618L7.27559 16.1701C7.32511 16.1621 7.37567 16.1641 7.42441 16.1757C7.47323 16.1874 7.51917 16.2085 7.55979 16.2379C7.60041 16.2673 7.6348 16.3045 7.66106 16.3472C7.68726 16.3899 7.70484 16.4374 7.71275 16.4868C7.72066 16.5363 7.71877 16.5869 7.70708 16.6357C7.69545 16.6845 7.6743 16.7305 7.64488 16.771C7.61547 16.8117 7.57835 16.846 7.53563 16.8723C7.49291 16.8986 7.44549 16.9161 7.39598 16.9241L5.26261 17.2644V38.76L5.40816 39.3L5.76435 39.6125C6.23238 39.6573 6.70459 39.6267 7.1629 39.5216C7.21172 39.5099 7.26236 39.508 7.31194 39.516C7.36153 39.5239 7.409 39.5416 7.4518 39.5679C7.49452 39.5943 7.53164 39.6288 7.56105 39.6695C7.5904 39.7102 7.61148 39.7563 7.62303 39.8051C7.63459 39.854 7.63641 39.9047 7.62836 39.9542C7.6203 40.0038 7.60251 40.0512 7.57611 40.0939C7.54971 40.1366 7.51511 40.1737 7.47435 40.2029C7.43352 40.2322 7.38743 40.2532 7.33855 40.2646C6.93648 40.3513 6.52661 40.3966 6.11535 40.3998Z" fill="#ED1E71"/>
<path d="M13.9519 14.2297C14.0208 14.134 14.0604 14.0203 14.066 13.9025C14.0715 13.7847 14.0428 13.6678 13.9832 13.566C13.9237 13.4642 13.836 13.3819 13.7306 13.3289C13.6252 13.2761 13.5067 13.2548 13.3894 13.2679C13.255 13.2772 13.1268 13.3282 13.0227 13.4138C12.9186 13.4994 12.8437 13.6152 12.8085 13.7454C12.7734 13.8755 12.7796 14.0133 12.8264 14.1397C12.8732 14.2661 12.9583 14.3747 13.0697 14.4505C13.1413 14.4969 13.2216 14.5281 13.3058 14.5421C13.3899 14.5561 13.476 14.5526 13.5588 14.5319C13.6415 14.5112 13.7191 14.4737 13.7867 14.4217C13.8544 14.3697 13.9106 14.3044 13.9519 14.2297Z" fill="#F5A2C5"/>
<path d="M10.1826 14.7291C10.3739 14.2427 10.0541 13.8359 9.47401 13.9737C9.20402 14.0379 8.71335 14.6712 9.24773 15.0602C9.32827 15.1118 9.4196 15.1443 9.51463 15.1553C9.60967 15.1662 9.70597 15.1553 9.79618 15.1234C9.88639 15.0915 9.96805 15.0394 10.0351 14.971C10.102 14.9027 10.1525 14.8199 10.1826 14.7291Z" fill="#F5A2C5"/>
<path d="M12.0937 14.4243C12.1453 14.312 12.1608 14.1864 12.1379 14.0649C12.115 13.9434 12.0549 13.832 11.9659 13.7462C11.8769 13.6604 11.7634 13.6044 11.6411 13.586C11.5189 13.5676 11.3939 13.5877 11.2836 13.6434C11.1864 13.6952 11.1033 13.77 11.0415 13.8612C10.9796 13.9523 10.9409 14.0571 10.9287 14.1666C10.9163 14.2761 10.9309 14.3869 10.971 14.4895C11.0112 14.592 11.0756 14.6833 11.1589 14.7554C11.239 14.8086 11.3305 14.8425 11.4259 14.8543C11.5214 14.8661 11.6183 14.8555 11.709 14.8234C11.7997 14.7913 11.8816 14.7385 11.9484 14.6692C12.0152 14.6 12.0649 14.5161 12.0937 14.4243Z" fill="#F5A2C5"/>
<path d="M52.9494 42.8849L52.9348 42.8648L50.5312 40.7704L50.5116 40.7424L50.5048 40.7446L50.5015 40.7233L50.5048 40.7026L50.5116 40.688L52.6294 38.1208L52.7269 37.8956L52.7381 37.8636L52.7337 37.8474L52.7432 37.8177L52.737 37.7897L52.7056 37.6591L52.6972 37.6277L52.6844 37.6036L52.6793 37.5896L52.6569 37.5655L52.6356 37.5375L52.6059 37.5123L51.7341 36.873L51.5767 36.7733L51.5531 36.766L40.1154 33.9724L39.9439 33.9791L39.8997 33.9842L39.8778 33.992L39.8565 33.9999L39.8324 34.015L39.8011 34.0464L39.7843 34.0665L39.7596 34.1018L39.7484 34.1282L39.7439 34.1511L39.7411 34.1724L39.7434 34.2178L39.7619 34.3932L44.2156 45.5491L44.2296 45.5681L44.3478 45.7116L44.3764 45.7379L45.2482 46.3778L45.2857 46.4013L45.3076 46.4103L45.3395 46.4215L45.3754 46.4327L45.469 46.44L45.5065 46.4327L45.5339 46.4338L45.5513 46.4293L45.5777 46.4215L45.6062 46.4035L45.8034 46.2674L47.8743 43.8357L49.5344 45.2353L50.4062 45.8752L50.4309 45.883L50.5978 45.9491L50.6197 45.9396L50.7995 45.9071L50.9564 45.7867L52.9483 43.4239L53.0379 43.2469L53.0385 43.062L53.0418 43.0407L52.9494 42.8849Z" fill="white"/>
<path d="M50.4887 40.893C51.2736 41.5794 52.0333 42.2428 52.7917 42.9078C53.1109 43.1877 53.1205 43.3712 52.8423 43.7008C52.2496 44.4027 51.6574 45.1049 51.0656 45.8074C50.8066 46.1146 50.7388 46.1296 50.429 45.8724C49.6987 45.2666 48.9758 44.6516 48.2498 44.0406C48.1733 43.9763 48.0953 43.9135 48.0047 43.8389C47.3031 44.6607 46.1724 45.9521 46.0068 46.0879C45.8926 45.8931 41.0425 34.5457 40.8566 34.3254C41.4008 34.4563 41.1649 34.3985 41.7087 34.5311C44.9191 35.314 48.1345 36.0773 51.3338 36.903C51.8207 37.0905 52.2648 37.3743 52.6396 37.7372C52.853 37.9079 52.7094 38.1682 52.5557 38.3562C51.9168 39.1377 51.276 39.9176 50.6333 40.6959C50.5897 40.7489 50.5518 40.8066 50.4887 40.893Z" fill="#F5A2C5"/>
<path d="M45.4601 46.7744C45.4483 46.7745 45.4364 46.774 45.4246 46.7728L45.3337 46.7607C45.3255 46.7596 45.2834 46.7509 45.2752 46.7493C45.2155 46.7366 45.1581 46.7149 45.1051 46.6847C45.0985 46.6809 45.0547 46.6524 45.0492 46.6481L44.1776 46.009C44.1661 46.0013 44.1273 45.9652 44.1174 45.9559L43.9703 45.7819C43.9435 45.7487 43.9209 45.7122 43.903 45.6736L39.4491 34.5176C39.4379 34.4889 39.4306 34.459 39.4272 34.4284L39.4086 34.2533C39.408 34.2457 39.4059 34.192 39.4053 34.1844C39.4064 34.1724 39.4124 34.0924 39.4146 34.0803C39.4204 34.0527 39.4283 34.0255 39.4382 33.9989C39.451 33.9676 39.4664 33.9374 39.4841 33.9085C39.4917 33.8982 39.524 33.8527 39.5328 33.8434C39.5703 33.8041 39.61 33.7669 39.6515 33.7318C39.7218 33.6867 39.8039 33.6635 39.8874 33.6651L40.0706 33.6389C40.112 33.6331 40.1542 33.6353 40.1948 33.6454L51.6326 36.4392C51.6757 36.4504 51.7171 36.4673 51.7557 36.4895L51.9133 36.5891L52.8046 37.2407C52.8112 37.2457 52.8473 37.2763 52.8533 37.2812C52.8826 37.3061 52.9074 37.336 52.9266 37.3694C52.9365 37.3799 52.9457 37.3909 52.954 37.4027C52.9955 37.4636 53.0221 37.5333 53.0317 37.6062L53.0612 37.7513C53.0628 37.76 53.07 37.8103 53.0711 37.8196C53.0821 37.9028 53.0616 37.9872 53.0136 38.0561L52.9217 38.2553C52.9095 38.2815 52.894 38.306 52.8758 38.3285L50.9361 40.678L53.1554 42.6112C53.1741 42.6277 53.191 42.6462 53.2057 42.6663C53.2123 42.6751 53.233 42.7047 53.239 42.714L53.3211 42.8535C53.355 42.911 53.3744 42.9758 53.3775 43.0423L53.3764 43.2381C53.3763 43.2664 53.3727 43.2946 53.3655 43.322C53.3586 43.3484 53.3493 43.3743 53.3376 43.3991L53.2478 43.5758C53.2362 43.5991 53.222 43.621 53.2051 43.6409L51.2135 46.0029C51.1978 46.0215 51.1802 46.0384 51.161 46.0533L51.0395 46.1464C51.0356 46.1491 50.9963 46.1791 50.9919 46.1818C50.9484 46.2123 50.8993 46.2339 50.8475 46.2453L50.6586 46.2792C50.6037 46.2899 50.547 46.2861 50.494 46.2683L50.2833 46.1879C50.2564 46.1772 50.231 46.1631 50.2078 46.1458L49.3351 45.5062L47.9075 44.3019L46.0566 46.4778C46.0374 46.5002 46.0155 46.5201 45.9914 46.537L45.8054 46.6651C45.7678 46.6982 45.7244 46.7242 45.6774 46.7416C45.6349 46.7549 45.5913 46.7643 45.5472 46.7695C45.5183 46.7728 45.4892 46.7745 45.4601 46.7744ZM44.5086 45.377L44.6071 45.4973L45.4393 46.1008L45.5734 46.0085L47.6121 43.613C47.6701 43.5445 47.7529 43.5019 47.8423 43.4942C47.9317 43.4867 48.0205 43.5148 48.0892 43.5725L50.0212 45.1756L50.6292 45.6013L50.6494 45.5976L50.7233 45.5417L52.7051 43.132L52.6783 43.0877L50.3326 41.048C50.3177 41.0363 50.3038 41.0234 50.291 41.0096C50.2702 40.9872 50.2514 40.9631 50.2346 40.9374C50.2286 40.9287 50.2232 40.9199 50.2177 40.9112C50.2111 40.8997 50.1974 40.8733 50.192 40.8607C50.1822 40.8376 50.175 40.8134 50.1706 40.7885C50.161 40.7336 50.1623 40.6772 50.1745 40.6227C50.1797 40.5863 50.1911 40.5512 50.2084 40.5188C50.223 40.4919 50.241 40.4671 50.262 40.4449L50.2741 40.4274C50.2784 40.4208 50.3047 40.3875 50.3096 40.3809L52.3297 37.934L52.3855 37.8126L52.3751 37.7622L51.4411 37.0854L40.0964 34.3135L40.092 34.3141L44.5086 45.377Z" fill="#ED1E71"/>
</g>
</g>
<defs>
<clipPath id="clip0_2_600">
<rect width="54.6282" height="46.2238" fill="white" transform="translate(0.371826 0.700195)"/>
</clipPath>
</defs>
</svg>
