<svg width="46" height="48" viewBox="0 0 46 48" fill="none" xmlns="http://www.w3.org/2000/svg">
<g clip-path="url(#clip0_2_545)">
<mask id="mask0_2_545" style="mask-type:luminance" maskUnits="userSpaceOnUse" x="0" y="0" width="46" height="48">
<path d="M45.0469 0.350098H0.924194V47.2743H45.0469V0.350098Z" fill="white"/>
</mask>
<g mask="url(#mask0_2_545)">
<path d="M2.66888 10.7711C2.66888 10.7711 2.71238 28.0751 2.67141 34.1599C2.66083 35.7253 6.28107 37.4758 6.28107 37.4758L39.2816 32.3667L39.2082 6.48459L34.0103 4.74951L3.08728 9.86794L2.66888 10.7711Z" fill="white"/>
<path d="M15.144 7.68585C15.144 7.68585 13.9776 0.323547 25.0284 0.788461C25.0284 0.788461 28.2828 1.26884 28.4259 6.67925C28.4259 6.67925 26.7807 7.97685 25.8509 6.93971L25.067 3.96185L23.7417 3.51158C23.7417 3.51158 18.2185 3.57434 18.1365 6.41934C18.1587 7.24668 17.9835 8.0674 17.6254 8.81357C17.6254 8.81357 15.8096 9.3976 15.144 7.68585Z" fill="white"/>
<path d="M38.0368 31.2128C38.0398 29.4108 38.042 27.6089 38.0436 25.8069C38.0446 24.2848 38.0458 22.7627 38.038 21.2406C38.0376 21.1588 38.1579 20.9306 37.8818 21.0162C38.1233 20.8054 38.3448 20.5727 38.5434 20.321C38.5312 20.2885 38.5295 20.2614 38.5176 20.2556C37.9766 19.9922 38.0262 19.5316 38.0794 19.0431C38.1063 18.6618 38.11 18.2792 38.0905 17.8975C38.0885 17.751 38.0462 17.6049 38.0459 17.4586C38.0423 15.9831 38.0508 14.5077 38.0414 13.0323C38.0345 11.9524 38.0086 10.8724 37.9864 9.79254C37.977 9.33961 37.8903 9.28499 37.4471 9.25697C36.3965 9.23211 35.3463 9.32505 34.3163 9.53382C33.4816 9.6678 32.6397 9.75738 31.8031 9.88078C30.9949 9.99998 30.1903 10.1435 29.3825 10.2649C28.4555 10.4042 27.5258 10.5245 26.599 10.6647C25.5462 10.824 24.4963 11.0019 23.4435 11.1613C22.5168 11.3015 21.5869 11.4209 20.6603 11.5613C19.7436 11.7002 18.8297 11.8582 17.9134 11.9996C17.1325 12.1201 16.3493 12.2257 15.568 12.344C14.742 12.469 12.3056 12.7759 11.4784 12.8923C10.9404 12.9679 10.3987 13.0232 9.8569 13.065C9.38535 13.1013 8.91093 13.1281 8.43867 13.1177C8.06062 13.1036 7.68414 13.0613 7.31232 12.9912C6.80491 12.9033 6.56069 12.4772 6.28566 12.1125C5.82104 11.4059 5.24961 10.7756 4.59177 10.2441C4.22744 10.0252 3.84658 9.83498 3.4527 9.67516C7.25083 8.95442 15.4052 7.70252 15.3903 7.91375C15.3456 8.54856 17.8647 8.73429 18.3198 8.60823C18.3198 8.49043 18.3971 8.33656 18.3199 8.23458C17.1426 6.67877 23.228 6.54276 25.2341 6.22395C25.2341 6.35667 25.3858 6.64669 25.3682 6.75146C25.3237 7.01662 25.4776 7.04099 25.6991 7.09121C27.0611 7.47742 27.059 4.96708 26.7689 4.29278C26.411 3.46047 25.7019 2.23115 24.8426 2.03614C24.1634 1.89113 23.4618 1.88389 22.7798 2.01485C22.0699 2.17263 21.3299 2.12768 20.6444 1.88515C20.5078 1.83097 20.3573 1.81069 20.2229 1.75255C20.1408 1.70442 20.0652 1.64601 19.9978 1.57876C20.0669 1.49933 20.1233 1.36986 20.2073 1.34832C20.9337 1.16202 21.6609 0.974229 22.3964 0.830214C22.8515 0.750464 23.3116 0.702321 23.7734 0.68615C25.6137 0.586061 27.7188 2.79043 27.9834 4.63028C28.0138 4.84172 28.046 5.05288 28.082 5.29632C28.6178 5.21228 28.1393 5.7746 28.6608 5.69294C30.7345 5.36839 32.8043 5.01709 34.8835 4.73295C35.6964 4.55331 36.5439 4.6134 37.3234 4.90601C37.6674 5.06528 37.9881 5.27097 38.2764 5.51722C38.9372 6.08101 39.4861 6.764 39.8947 7.53051C40.0783 7.876 40.1791 8.25938 40.1895 8.65046C40.2149 11.8811 40.2183 15.1118 40.1999 18.3428C40.2089 19.0047 39.9636 19.6451 39.5145 20.1318C39.4048 20.263 39.3435 20.4279 39.3408 20.5989C39.331 23.8485 39.3288 27.0982 39.3338 30.3479C39.3339 30.503 39.3322 30.6577 39.3212 30.8114L38.0368 31.2128Z" fill="#FFB7A4"/>
<path d="M7.06874 37.7966C6.91935 37.7966 6.74153 37.7851 6.54179 37.7704C6.44444 37.7632 6.35634 37.7561 6.29064 37.7545C6.24988 37.7533 6.20968 37.7448 6.17193 37.7293L5.62313 37.5027C5.59777 37.4923 5.57375 37.4789 5.55148 37.4628L4.25084 36.5086C4.05061 36.3592 3.8115 36.1852 3.57408 36.0117C3.35298 35.8509 3.13355 35.6906 2.94866 35.5532C2.92289 35.534 2.89998 35.5112 2.88079 35.4854C2.59063 35.1854 2.4105 34.7961 2.36974 34.3807L2.34074 34.2198C2.33703 34.2002 2.33514 34.1802 2.33528 34.1602C2.33087 32.928 2.33255 27.5916 2.33416 22.5621L2.33633 16.3289C2.33633 14.6458 2.33633 13.4033 2.33528 12.9726C2.33514 12.9517 2.33696 12.9308 2.34074 12.9103C2.4341 12.4013 2.66088 11.9263 2.99789 11.5336C3.09931 11.4084 3.22705 11.3069 3.37196 11.2364C3.51686 11.1659 3.67549 11.128 3.83665 11.1254H3.84106C3.99514 11.1255 4.1474 11.1584 4.28789 11.2218C4.42831 11.2852 4.55368 11.3777 4.65572 11.4931C5.02117 11.929 5.33563 12.4052 5.59301 12.9124C5.71543 13.1417 5.78267 13.3962 5.78946 13.656C5.80207 14.1451 5.78617 14.9271 5.78617 14.9271V36.0479L5.91364 36.5885L6.11394 36.8708L6.47778 37.065C6.4941 37.0736 6.50964 37.0835 6.52428 37.0946L6.59103 37.0995C6.80345 37.1231 7.01748 37.1276 7.23067 37.1132L37.5574 32.3683C37.6259 32.3414 37.7282 32.3053 37.8321 32.2687C37.9284 32.2348 38.0263 32.2008 38.0915 32.1757C38.1484 32.1259 38.2217 32.0646 38.2967 32.0022C38.3831 31.93 38.4723 31.8562 38.5369 31.7987L38.7815 31.3533L38.8761 30.7432L38.8723 20.3133C38.8724 20.2238 38.9079 20.138 38.9713 20.0748C39.1887 19.8574 39.3849 19.62 39.5573 19.3656C39.5665 19.3082 39.5791 19.2513 39.5951 19.1954C39.6159 19.1161 39.6356 19.0439 39.6492 19.005C39.6755 18.912 39.722 18.6226 39.7433 18.4667L39.7784 18.0322C39.8264 17.6253 39.84 17.2152 39.8188 16.806C39.8139 16.5691 39.8096 16.3432 39.8156 16.1543C39.8123 14.34 39.8123 12.2811 39.8123 10.4563C39.8057 10.215 39.8096 9.95727 39.8134 9.6968C39.8442 9.10871 39.8104 8.51901 39.7127 7.93827C39.4984 7.4686 39.2214 7.03014 38.8892 6.63492C38.465 6.05761 37.9364 5.56477 37.3309 5.18167C37.1524 5.10022 36.9672 5.03446 36.7772 4.98529C36.7058 4.98116 36.6349 4.97037 36.5654 4.95301C36.4977 4.93893 36.4292 4.92828 36.3603 4.92121C36.3349 4.92023 36.3097 4.91617 36.2853 4.90923C36.0187 4.87492 35.7487 4.87527 35.4821 4.91035C35.336 4.92128 35.2003 4.93164 35.092 4.93277C33.5736 5.14175 32.3185 5.34696 30.9894 5.5647C30.1873 5.69546 29.3573 5.83175 28.415 5.97616C28.3714 5.98289 28.3269 5.98086 28.284 5.97035C28.2412 5.95985 28.2008 5.94101 28.1652 5.91488C28.1297 5.88876 28.0996 5.85591 28.0768 5.81816C28.0539 5.78041 28.0387 5.73853 28.032 5.6949C28.0253 5.65134 28.0273 5.60679 28.0379 5.56393C28.0484 5.52114 28.0672 5.48073 28.0933 5.44515C28.1194 5.40964 28.1523 5.37953 28.19 5.35669C28.2278 5.33379 28.2697 5.31859 28.3132 5.31194C29.2527 5.16746 30.0811 5.0318 30.881 4.90097C32.2145 4.68267 33.4741 4.47641 35.0422 4.26357C35.1801 4.25916 35.301 4.24991 35.4307 4.24004C35.7628 4.19676 36.0994 4.20096 36.4303 4.25264C36.4993 4.25916 36.5928 4.2745 36.6842 4.29144C36.7548 4.30405 36.8237 4.31722 36.8697 4.32044C37.1402 4.38151 37.4029 4.47256 37.6532 4.59183C38.3407 5.02017 38.9411 5.57451 39.4227 6.22563C39.8075 6.6857 40.1224 7.19983 40.3573 7.75162C40.476 8.39595 40.5189 9.05184 40.4853 9.70612C40.4821 9.95776 40.4782 10.2067 40.4842 10.448C40.4842 12.281 40.4842 14.3389 40.4875 16.1648C40.4815 16.3546 40.4864 16.5685 40.4908 16.7923C40.5143 17.2344 40.4987 17.6777 40.4443 18.117L40.4115 18.5394C40.3829 18.7658 40.3418 18.9905 40.2884 19.2124C40.272 19.2606 40.2599 19.3104 40.2457 19.3645C40.2208 19.4805 40.1848 19.5937 40.1379 19.7027C39.9622 19.9686 39.7636 20.2187 39.5442 20.4501V30.7946L39.4392 31.4972C39.4349 31.5261 39.4266 31.5543 39.4145 31.5809L39.3385 31.7538L39.0917 32.1822C39.075 32.2105 39.0544 32.2363 39.0304 32.2588C38.9593 32.3245 38.8416 32.4235 38.7273 32.5182C38.6381 32.5926 38.5517 32.6648 38.4975 32.714C38.4706 32.7386 38.44 32.7586 38.4067 32.7731C38.341 32.8016 38.1971 32.8531 38.0553 32.9028C37.9432 32.9422 37.8321 32.9811 37.7764 33.0046C37.7514 33.0149 37.7253 33.0222 37.6986 33.0265L7.34889 37.7747C7.25644 37.7912 7.16259 37.7985 7.06874 37.7966ZM3.38912 35.0428C3.56365 35.1724 3.76661 35.3202 3.97021 35.4685C4.20987 35.643 4.45114 35.8192 4.65082 35.968L5.16572 36.3455L5.12307 36.1634C5.11712 36.1382 5.11417 36.1125 5.11431 36.0868V14.92C5.11431 14.9112 5.12958 14.1501 5.11754 13.6735C5.11312 13.5183 5.07285 13.3663 4.99988 13.2292C4.76701 12.7684 4.48266 12.3354 4.15237 11.9385C4.11336 11.8944 4.06538 11.8591 4.01174 11.8349C3.95809 11.8106 3.89989 11.798 3.84106 11.7979C3.78328 11.794 3.72543 11.8045 3.67269 11.8285C3.62002 11.8524 3.57408 11.8891 3.53899 11.9352C3.2711 12.2383 3.08789 12.6067 3.0077 13.0033C3.00826 13.4623 3.00826 14.6853 3.00826 16.3289L3.00665 22.5621C3.00497 27.5516 3.00336 32.8426 3.00721 34.1284L3.0313 34.262C3.05518 34.5561 3.18188 34.8326 3.38912 35.0428Z" fill="#FC7C54"/>
<path d="M18.2711 7.58633C18.1866 7.58619 18.1052 7.55432 18.0432 7.49689C17.9811 7.43946 17.943 7.36081 17.9364 7.27652C17.9298 7.19226 17.9551 7.10857 18.0074 7.04217C18.0598 6.97578 18.1351 6.93152 18.2186 6.91828L25.3897 5.77473C25.4334 5.76752 25.4781 5.76906 25.5211 5.77921C25.5642 5.78937 25.6049 5.808 25.6408 5.83384C25.6767 5.85976 25.7071 5.89253 25.7303 5.93021C25.7536 5.96789 25.7691 6.00984 25.7761 6.05355C25.7831 6.09725 25.7814 6.14193 25.7711 6.185C25.7607 6.22808 25.742 6.26863 25.716 6.30448C25.6899 6.34027 25.6571 6.3706 25.6193 6.39364C25.5815 6.41675 25.5395 6.43209 25.4958 6.43895L18.3248 7.58248C18.307 7.58507 18.2891 7.5864 18.2711 7.58633Z" fill="#FC7C54"/>
<path d="M25.1945 23.0842C25.1098 23.084 25.0283 23.052 24.9663 22.9944C24.9042 22.9367 24.8663 22.8579 24.8599 22.7735C24.8535 22.6891 24.8793 22.6053 24.932 22.5391C24.9846 22.4728 25.0604 22.4289 25.1441 22.4162C29.1099 21.8055 34.2592 21.0679 37.9574 20.5804C38.3176 20.4537 38.6604 20.2822 38.9778 20.07C39.0071 20.0378 39.0423 20.0118 39.0817 19.9935C39.1211 19.9753 39.1637 19.965 39.2071 19.9636C39.2504 19.9621 39.2936 19.9693 39.3342 19.9849C39.3747 20.0004 39.4117 20.0239 39.443 20.0541C39.5081 20.117 39.5461 20.2028 39.549 20.2934C39.5519 20.3839 39.5193 20.4719 39.4583 20.5388C39.0348 20.8586 38.5566 21.0984 38.0471 21.2468C34.3517 21.7337 29.2078 22.4708 25.2459 23.0803C25.2288 23.083 25.2116 23.0842 25.1945 23.0842Z" fill="#FC7C54"/>
<path d="M2.67101 13.3076C2.58921 13.3075 2.51028 13.2776 2.44893 13.2236C2.38765 13.1695 2.34808 13.0949 2.33778 13.0138L2.12881 11.3597C2.07506 10.9367 2.16513 10.508 2.38456 10.1423C2.60399 9.77674 2.93995 9.49555 3.33853 9.34399C3.56586 9.25 3.80027 9.17394 4.03945 9.11637C6.00102 8.76787 8.22251 8.445 10.3712 8.13257C11.9666 7.90061 13.6158 7.66095 15.091 7.41968C15.1789 7.40532 15.2689 7.42647 15.3413 7.47844C15.4136 7.53047 15.4624 7.60912 15.4767 7.69709C15.4911 7.78499 15.4699 7.87505 15.4179 7.9474C15.3658 8.01975 15.2872 8.06842 15.1993 8.08278C13.7187 8.32517 12.0662 8.5654 10.468 8.79792C8.32428 9.1093 6.10824 9.43153 4.16089 9.77786C3.96248 9.82801 3.76806 9.89293 3.57931 9.97214C3.32137 10.0699 3.10391 10.2516 2.96187 10.488C2.81977 10.7245 2.7615 11.0018 2.79631 11.2754L3.00529 12.9295C3.01636 13.018 2.99192 13.1073 2.93722 13.1778C2.88259 13.2483 2.80212 13.2942 2.71366 13.3054C2.69952 13.307 2.68523 13.3077 2.67101 13.3076Z" fill="#FC7C54"/>
<path d="M22.0312 26.8033C21.981 26.8023 21.9307 26.7986 21.8808 26.7924C21.8 26.8011 21.7183 26.7859 21.646 26.7486C21.5093 26.6702 21.3819 26.5764 21.2664 26.469C20.7865 26.0625 20.7569 26.0029 20.7367 25.8786C20.6949 25.6558 20.6844 25.4282 20.7055 25.2024L20.8379 21.0396C20.8385 21.0185 20.8411 20.9974 20.8456 20.9767L20.9003 20.7311C20.9088 20.6939 20.9234 20.6584 20.9435 20.626L21.0825 20.4044C21.1021 20.3734 21.1264 20.3456 21.1547 20.3223L21.3462 20.1658C21.3702 20.1464 21.3961 20.1294 21.4233 20.1149C21.6414 20.0266 21.8713 19.9707 22.1057 19.9492C22.2189 19.9366 22.4761 19.8934 22.7792 19.8424C23.3551 19.7266 23.9383 19.6504 24.5247 19.6143C24.5581 19.6168 24.5911 19.6243 24.6226 19.6362C24.6839 19.6603 24.8381 19.7418 24.8951 19.773C24.9162 19.7849 24.936 19.799 24.9542 19.8151L25.2228 20.0531C25.3267 20.1432 25.4143 20.2505 25.4816 20.3704C25.59 20.5034 25.6097 20.6539 25.5462 22.2756C25.5369 22.5065 25.5292 22.6833 25.5309 22.7331L25.4482 25.3682C25.4476 25.3895 25.4451 25.4108 25.4406 25.4317L25.3859 25.6768C25.3778 25.7125 25.3639 25.7467 25.3449 25.778L25.2037 26.004C25.1807 26.0401 25.1512 26.0717 25.1166 26.097L24.924 26.2376C24.8991 26.2561 24.8717 26.2709 24.8425 26.2814L24.6121 26.3668C24.5922 26.3744 24.5715 26.3799 24.5504 26.3832L24.1334 26.4494C23.5622 26.5391 22.5106 26.7049 22.1965 26.7777C22.1432 26.7956 22.0874 26.8042 22.0312 26.8033ZM21.9032 26.1183C21.9202 26.12 21.9377 26.1222 21.9547 26.1238C21.9744 26.126 21.9946 26.1287 22.0127 26.1303L22.0132 26.1298C22.3 26.0592 23.1667 25.9208 24.0295 25.7851L24.4104 25.7249L24.5657 25.6674L24.668 25.5925L24.7419 25.4743L24.7775 25.3162L24.859 22.7385C24.8568 22.7248 24.8634 22.5202 24.8743 22.2494C24.8896 21.8581 24.9241 20.9778 24.905 20.7261L24.9034 20.7239C24.8327 20.6828 24.7804 20.6163 24.7573 20.5379L24.5367 20.3431C24.5044 20.3256 24.4612 20.3026 24.4251 20.2846C24.1614 20.2933 23.3439 20.4301 22.8898 20.5056C22.5714 20.5593 22.301 20.6041 22.1757 20.6183C22.03 20.6324 21.8862 20.6621 21.7468 20.707L21.6231 20.8082L21.5444 20.934L21.5088 21.0922L21.3775 25.2309C21.367 25.3777 21.3681 25.5252 21.3807 25.6719C21.4535 25.7414 21.5974 25.8688 21.7189 25.9723C21.7768 26.0252 21.8384 26.074 21.9032 26.1183Z" fill="#FC7C54"/>
<path d="M6.28106 37.8123C6.19267 37.8123 6.10786 37.7774 6.04496 37.7153C5.98207 37.6531 5.94621 37.5688 5.94509 37.4804C5.94404 37.392 5.9778 37.3067 6.03915 37.2431C6.1005 37.1794 6.18448 37.1425 6.27286 37.1403L6.92455 37.1245L37.6096 32.2789L38.1644 32.0567L38.5129 31.7563L38.7991 31.3044L38.8872 31.0209L38.9491 30.6757L38.9781 30.6812C38.9414 30.227 38.9419 29.0846 38.9436 26.0468C38.9452 23.3865 38.9469 20.3705 38.9436 20.2453L39.2796 20.2326L39.5072 19.9854C39.6193 20.0887 39.6193 20.0887 39.616 26.0473C39.6149 28.2769 39.6133 30.5816 39.6155 30.7227C39.6166 30.7481 39.6148 30.7734 39.61 30.7982L39.5389 31.1818L39.4284 31.5462C39.4196 31.5746 39.407 31.6016 39.3911 31.6267L39.0541 32.1585C39.0365 32.1865 39.0148 32.2116 38.9895 32.2329L38.5611 32.6022C38.5331 32.6267 38.5011 32.6461 38.4664 32.6597L37.8241 32.9169C37.8009 32.9263 37.7767 32.9331 37.7519 32.9371L6.9852 37.7926L6.28925 37.8123H6.28106Z" fill="#FC7C54"/>
<path d="M7.89973 25.9078C7.55095 25.9083 7.20441 25.8527 6.87328 25.7431C6.30935 25.5057 5.85026 25.0723 5.5809 24.523L5.4928 24.3812C5.31855 24.1425 5.1915 23.8727 5.11852 23.5862C5.11194 23.5426 5.11397 23.4981 5.12455 23.4553C5.13512 23.4125 5.15403 23.3721 5.18023 23.3366C5.20642 23.3011 5.23927 23.2711 5.27709 23.2483C5.31483 23.2255 5.35672 23.2103 5.40035 23.2038C5.44391 23.1971 5.48845 23.1992 5.53125 23.2098C5.57411 23.2204 5.61438 23.2393 5.64989 23.2655C5.6854 23.2916 5.71544 23.3245 5.73827 23.3623C5.76103 23.4 5.77616 23.4419 5.78282 23.4855C5.84949 23.6766 5.94306 23.8571 6.06072 24.0217L6.1587 24.1793C6.35011 24.5863 6.67753 24.9137 7.08451 25.1051C7.55739 25.2576 8.06299 25.2777 8.54652 25.1631C10.8013 24.7637 13.3625 24.3834 15.839 24.0151C17.5746 23.7574 19.2823 23.5036 20.8313 23.253C20.8748 23.2459 20.9193 23.2475 20.9622 23.2577C21.0052 23.2678 21.0457 23.2863 21.0814 23.3122C21.1172 23.3379 21.1476 23.3706 21.1707 23.4081C21.1938 23.4457 21.2094 23.4874 21.2165 23.5309C21.2235 23.5745 21.2219 23.619 21.2117 23.6619C21.2015 23.7048 21.1831 23.7453 21.1572 23.7811C21.1314 23.8169 21.0988 23.8472 21.0613 23.8704C21.0238 23.8935 20.9821 23.9091 20.9385 23.9161C19.3873 24.1678 17.6764 24.4222 15.9381 24.6805C13.4654 25.0477 10.9091 25.4273 8.70137 25.8169C8.43831 25.8765 8.16944 25.907 7.89973 25.9078Z" fill="#FC7C54"/>
<path d="M16.7651 9.14884C16.3046 9.14477 15.8485 9.05821 15.4185 8.89335C15.2264 8.81827 15.0537 8.70103 14.913 8.55024C14.7439 8.40358 14.7695 8.14648 14.7985 7.85317C14.8034 7.80225 14.809 7.75631 14.8101 7.7257C14.8079 7.70609 14.8073 7.68627 14.8085 7.66659C14.8332 6.58712 15.0419 5.51984 15.4256 4.51055C16.0062 3.23708 16.9794 2.18286 18.2025 1.50231C19.3886 0.962104 20.6563 0.6228 21.9538 0.498269L22.1485 0.469274C23.2834 0.238967 24.4589 0.312386 25.5562 0.682114C25.9403 0.847133 26.307 1.04985 26.651 1.28727C26.6927 1.31306 26.7308 1.34434 26.7643 1.38028L27.1709 1.7239C27.2114 1.75946 27.3629 1.93237 27.4881 2.07955C27.5555 2.15779 27.6134 2.22619 27.6348 2.24917C27.6453 2.25957 27.6775 2.30224 27.6863 2.31428L28.0271 2.8598C28.3803 3.59882 28.5963 4.39583 28.6645 5.21203C28.7007 5.61579 28.7445 6.16298 28.762 6.56513C28.7591 6.66135 28.7367 6.75605 28.6961 6.84338C28.6556 6.93079 28.5978 7.00901 28.5262 7.07344C28.5218 7.07835 28.5169 7.08277 28.5125 7.08711C28.2211 7.31641 27.8666 7.45123 27.4965 7.47343C26.9898 7.51882 26.4792 7.45999 25.9962 7.30051C25.7588 7.23565 25.5413 7.11288 25.3631 6.94318C25.2691 6.86922 25.2054 6.76333 25.1842 6.64553C25.1804 6.62536 25.1785 6.60483 25.1786 6.58425L25.1781 6.35719C25.2136 5.73226 25.1508 5.10565 24.9921 4.50011C24.7301 3.76698 24.0379 3.78939 23.0152 3.91139L22.4823 3.99186C21.736 4.08592 20.9964 4.22697 20.268 4.41425C18.6041 4.94008 18.3042 6.27454 18.3622 8.25532C18.3634 8.28627 18.36 8.31723 18.3524 8.3472C18.2479 8.76084 17.8512 9.02186 17.1727 9.12306C17.0375 9.14022 16.9014 9.14884 16.7651 9.14884ZM15.4502 8.13822C15.5139 8.19319 15.5864 8.23704 15.6647 8.26792C16.1142 8.44392 16.5996 8.50885 17.0796 8.45723C17.5272 8.39049 17.6531 8.27283 17.6887 8.21098C17.6395 6.30361 17.9076 4.45529 20.0748 3.77027C20.8342 3.57312 21.6054 3.42492 22.3838 3.32652L22.9221 3.24556C23.8769 3.13336 25.1634 2.98124 25.6274 4.2802C25.8123 4.9564 25.8876 5.65781 25.8506 6.35775V6.48143C25.9541 6.56295 26.0725 6.62354 26.1991 6.65982C26.5914 6.79156 27.0066 6.84114 27.4187 6.80535C27.6475 6.79457 27.8687 6.72054 28.0578 6.59139C28.0723 6.57766 28.0848 6.56197 28.0951 6.54489C28.0737 6.20129 28.0299 5.66614 27.9955 5.27548C27.9369 4.55474 27.7506 3.85011 27.445 3.19464L27.1288 2.68912C27.1255 2.68912 27.0566 2.60865 26.9772 2.5162C26.8798 2.40185 26.765 2.2667 26.7244 2.22676L26.2938 1.85852C26.2718 1.84385 26.2506 1.82796 26.2304 1.8109C25.9383 1.61491 25.6289 1.44606 25.3061 1.30647C24.3192 0.983282 23.265 0.923864 22.2481 1.13412L22.0538 1.16311C20.833 1.27631 19.6393 1.59099 18.5214 2.09437C17.4329 2.70712 16.5652 3.64707 16.0412 4.78089C15.6936 5.70712 15.5043 6.68524 15.4814 7.6743C15.4833 7.75638 15.4788 7.83853 15.4678 7.91998C15.4623 7.97412 15.4524 8.07091 15.4502 8.13822Z" fill="#FC7C54"/>
<path d="M43.1036 37.7279L43.1031 36.5112L43.1024 35.2952V34.2752L43.1013 33.5986L43.0928 33.2205L43.0719 33.0483L43.0456 32.9934L43.0223 32.9533L42.9705 32.8973L42.8936 32.834L42.8005 32.7653L42.6999 32.6921L42.5929 32.6137L42.4776 32.5294L42.3534 32.4383L42.2188 32.3395L42.0731 32.2325L41.9148 32.1165L41.7436 31.9909L41.5589 31.8556L41.3638 31.7123L41.1613 31.5638L40.9549 31.4123L40.7471 31.26L40.5388 31.1073L40.3299 30.9541L40.1204 30.8004L39.911 30.6467L39.7045 30.4955L39.5055 30.3495L39.3179 30.2119L39.1444 30.0843L38.981 29.9646L38.8235 29.8492L38.6673 29.7347L38.51 29.6192L38.3585 29.5079L38.222 29.4076L38.1105 29.3253L38.0297 29.2664L37.9731 29.2319L37.9187 29.2129L37.8818 29.2032L37.7957 29.2027L37.742 29.209L37.664 29.1402L37.476 29.0233L37.245 28.9157L36.9754 28.8192L36.6714 28.7356L36.6228 28.7344L36.2984 28.6677L35.9505 28.616L35.5867 28.5791L35.2128 28.5589L34.8343 28.5566L34.4573 28.5713L34.0884 28.6016L33.735 28.648L33.4039 28.7108L33.0989 28.788L33.043 28.79L32.7609 28.8822L32.5164 28.9862L32.3144 29.1003L32.1574 29.2225L32.0479 29.3506L32.0005 29.3913L31.9399 29.5252L31.9316 29.6608L31.9067 29.7451L31.8975 29.8924L31.8962 30.1265V30.1372L31.4076 30.2152L30.4814 30.3629L29.6302 30.4987L28.8913 30.6165L28.293 30.7119L27.8259 30.7864L27.4715 30.843L27.2112 30.8845L27.0275 30.9146L26.9068 30.9393L26.8358 30.9649L26.7966 30.9962L26.7716 31.0545L26.7564 31.2238L26.7499 31.6004L26.7486 32.2769L26.7493 33.2968L26.7509 34.5127L26.7528 35.7292L26.7544 36.7509L26.7579 37.4309L26.7758 37.8149L26.8234 37.9971L26.842 38.0225L26.8892 38.0613L26.9673 38.1192L27.0769 38.1994L27.2109 38.2976L27.3601 38.4071L27.5156 38.5211L27.6704 38.6347L27.8269 38.7494L27.9892 38.8685L28.1619 38.9951L28.3477 39.1315L28.5446 39.2759L28.7488 39.4257L28.9567 39.5782L29.1651 39.731L29.3736 39.8839L29.582 40.0369L29.7905 40.1898L29.9984 40.3422L30.2026 40.492L30.3995 40.6364L30.5854 40.7728L30.7575 40.899L30.916 41.0152L31.062 41.1224L31.1967 41.2211L31.3211 41.3123L31.4359 41.3966L31.5419 41.4743L31.6398 41.5463L31.7305 41.6123L31.8151 41.6701L31.8944 41.7165L31.9694 41.7486L32.0082 41.7844L32.0785 41.7981L32.165 41.797L32.2858 41.7825L32.4591 41.7555L32.7034 41.7166L33.0395 41.6629L33.4889 41.5913L34.0727 41.4982L34.8023 41.3819L35.6487 41.2468L36.573 41.0994L37.5362 40.9457L38.4997 40.7922L39.4241 40.6447L40.271 40.5096L41.0014 40.3932L41.5864 40.2998L42.0371 40.2279L42.3743 40.1742L42.6186 40.1352L42.7891 40.1073L42.8974 40.0854L42.9531 40.0637L43.0264 40.0126L43.0641 39.8424L43.0875 39.8098L43.1024 39.4295L43.1043 38.7499L43.1036 37.7279ZM38.018 31.8002L38.0169 31.7069L38.0226 31.7245L38.018 31.8002ZM38.0299 31.6906L38.0298 31.6896L38.0401 31.7041L38.0299 31.6906ZM38.025 31.6841L38.0166 31.6728V31.671L38.0251 31.6831L38.025 31.6841ZM31.8947 31.6849L31.8939 31.7545L31.8782 31.8773L31.8867 31.7394L31.8441 31.7967L31.8947 31.6849Z" fill="white"/>
<path d="M27.0236 30.9721L31.9266 30.1874C31.9266 30.3362 31.9266 30.4685 31.9266 30.6008C31.9266 30.9001 31.9277 31.1993 31.9256 31.4985C31.9295 31.5475 31.9209 31.5966 31.9006 31.6413C31.8441 31.6998 31.8027 31.7712 31.7803 31.8495C31.7579 31.9276 31.755 32.0101 31.7719 32.0897C31.7888 32.1692 31.8249 32.2434 31.8773 32.3057C31.9295 32.368 31.9963 32.4165 32.0717 32.447C32.4203 32.6624 32.8081 32.8066 33.2127 32.8715C33.8416 33.0086 34.4855 33.065 35.1287 33.0392C35.405 33.0196 35.6797 32.9817 35.9509 32.9261C36.1593 32.8884 36.2044 32.8232 36.2056 32.6091C36.2081 32.1703 36.2063 31.7315 36.2063 31.2926C36.2063 31.1779 36.2067 31.0632 36.206 30.9485C36.2047 30.7313 36.1231 30.6402 35.907 30.6338C35.459 30.6203 35.0089 30.6349 34.5631 30.5976C33.8658 30.5838 33.1808 30.4116 32.5598 30.0941C32.4397 30.026 32.3338 29.9356 32.2477 29.8277C32.2097 29.769 32.1849 29.7029 32.1748 29.6337C32.1648 29.5645 32.1697 29.4941 32.1892 29.427C32.2087 29.3599 32.2425 29.2978 32.2882 29.2449C32.3339 29.192 32.3904 29.1496 32.4539 29.1205C32.7542 28.932 33.0894 28.8061 33.4396 28.7502C34.4843 28.5424 35.5604 28.5494 36.6024 28.7706C37.0158 28.8393 37.4098 28.9956 37.7579 29.2291C37.8256 29.2791 37.9413 29.2593 38.0205 29.2998C38.1283 29.3616 38.231 29.4318 38.3276 29.5099C39.4045 30.2998 40.4813 31.0901 41.5578 31.8807C42.0262 32.2242 42.4991 32.5617 42.9622 32.9122C43.0344 32.9773 43.0836 33.064 43.1026 33.1594C43.1263 33.2867 43.1357 33.4163 43.1307 33.5457C43.1325 35.5106 43.1328 37.4755 43.1317 39.4405C43.1316 39.5847 43.1178 39.7289 43.1084 39.8731C43.1098 39.9386 43.0854 40.0019 43.0405 40.0496C42.9955 40.0973 42.9336 40.1253 42.8682 40.1276C42.322 40.2115 41.7771 40.3029 41.2315 40.3902C40.145 40.5641 39.0584 40.7375 37.9718 40.9105C36.8115 41.0958 35.6512 41.2811 34.491 41.4665C33.754 41.5841 33.0176 41.7015 32.282 41.8185C32.282 40.7849 32.2819 39.7541 32.2817 38.7262C32.2803 37.4995 32.2777 36.2728 32.2744 35.0461C32.2738 34.9958 32.2594 34.9466 32.2328 34.9039C32.2062 34.8612 32.1683 34.8266 32.1234 34.8039C31.8726 34.6289 31.6482 34.4165 31.4016 34.235C30.3465 33.4584 29.2863 32.6886 28.2296 31.9142C27.826 31.6185 27.4268 31.3169 27.0256 31.018L27.0236 30.9721Z" fill="#FFB7A4"/>
<path d="M43.0459 33.3391C42.9994 33.3392 42.9533 33.3293 42.911 33.31C42.8686 33.2908 42.8308 33.2626 42.8002 33.2275C42.7879 33.2151 42.7766 33.2018 42.7663 33.1876L42.6799 33.0924L37.8507 29.5511C37.8424 29.55 37.8348 29.549 37.8272 29.5474L37.8195 29.5485C37.7226 29.5623 37.6241 29.538 37.5448 29.4806C37.5404 29.4768 37.512 29.4522 37.4939 29.4363L37.3467 29.3477C37.2701 29.3024 37.2146 29.2286 37.1922 29.1424C37.17 29.0563 37.1827 28.9648 37.2278 28.888C37.2728 28.8112 37.3464 28.7555 37.4325 28.7329C37.5187 28.7104 37.6102 28.7228 37.6871 28.7676L37.8687 28.8721C37.9037 28.8703 37.9386 28.8754 37.9716 28.8869C37.9906 28.8885 38.0095 28.8917 38.028 28.8968C38.0689 28.9089 38.1086 28.9247 38.1467 28.9439L43.1838 32.6371C43.205 32.6542 43.2239 32.6738 43.2402 32.6957L43.2817 32.7515L43.2943 32.7696C43.3032 32.7791 43.3114 32.7892 43.319 32.7997C43.356 32.8502 43.3782 32.9099 43.3833 32.9723C43.3884 33.0347 43.3761 33.0973 43.3479 33.1532C43.3196 33.209 43.2765 33.256 43.2232 33.2888C43.1699 33.3216 43.1085 33.339 43.0459 33.3391Z" fill="#FC7C54"/>
<path d="M35.1049 30.9869L34.2863 30.9634L33.5105 30.8676L32.8227 30.7034L32.2613 30.4769L32.0353 30.339L31.8471 30.1793C31.8278 30.1623 31.8105 30.1432 31.7956 30.1223L31.7015 29.9905C31.6813 29.9623 31.6656 29.9311 31.655 29.8981L31.6118 29.7635C31.5991 29.7237 31.5938 29.6819 31.5964 29.6403L31.6046 29.5046C31.6073 29.4605 31.6186 29.4174 31.6378 29.3777C31.6572 29.338 31.6841 29.3025 31.7171 29.2731C31.7502 29.2439 31.7886 29.2213 31.8304 29.2069C31.8721 29.1925 31.9163 29.1864 31.9603 29.1891C32.0044 29.1917 32.0475 29.2031 32.0873 29.2224C32.127 29.2418 32.1625 29.2687 32.1917 29.3018C32.221 29.3348 32.2434 29.3734 32.2578 29.4151C32.2722 29.4569 32.2782 29.501 32.2755 29.5451L32.2711 29.6179L32.3203 29.7005L32.4347 29.8012L32.7805 29.9768L33.3113 30.141L33.9739 30.257L34.7142 30.3123L35.0945 30.315L35.8441 30.269L36.5269 30.159L37.0905 29.996L37.4839 29.8012L37.6491 29.6234L37.6535 29.5501C37.6599 29.4615 37.7006 29.379 37.7671 29.3201C37.8336 29.2612 37.9204 29.2306 38.0092 29.2349C38.0532 29.2375 38.0964 29.2488 38.136 29.2681C38.1757 29.2874 38.2112 29.3143 38.2405 29.3474C38.2698 29.3804 38.2922 29.4189 38.3066 29.4606C38.321 29.5024 38.327 29.5465 38.3243 29.5905L38.3161 29.7257C38.3139 29.7667 38.304 29.807 38.2871 29.8444L38.2263 29.9785C38.2132 30.0072 38.1961 30.0339 38.1755 30.0578L38.0644 30.1881C38.0495 30.2052 38.033 30.221 38.0152 30.2351L37.8554 30.3593L37.6092 30.5027L37.3269 30.6247L36.6708 30.8157L35.9157 30.9371L35.1049 30.9869Z" fill="#FC7C54"/>
<path d="M32.0782 42.1333C32.0565 42.1335 32.0349 42.1315 32.0136 42.1273L31.9436 42.1136C31.9213 42.1092 31.8994 42.1026 31.8785 42.094L31.5031 41.8685L26.7778 38.3996C26.7757 38.3979 26.7346 38.3673 26.7319 38.365L26.675 38.3202L26.628 38.2813C26.606 38.263 26.5863 38.242 26.5694 38.2189C26.5291 38.1613 26.5037 38.0946 26.4955 38.0247L26.4578 37.8819C26.4517 37.859 26.448 37.8356 26.4469 37.8119L26.4288 37.4277L26.4135 31.6016L26.4392 31.0222C26.4421 31.001 26.4462 30.9801 26.4512 30.9593C26.4794 30.8841 26.5203 30.8143 26.5721 30.753C26.5866 30.7353 26.603 30.7192 26.6208 30.7048C26.6527 30.6814 26.6874 30.6621 26.7242 30.6474L26.9601 30.5845L31.5633 29.8546L31.5797 29.5865C31.5813 29.5614 31.5857 29.5366 31.5928 29.5126L31.6864 29.2686C31.7052 29.2279 31.7298 29.1902 31.7592 29.1564L31.902 29.0037C31.9171 28.9873 31.9331 28.9718 31.9502 28.9572L32.1066 28.8347L32.3517 28.6924L32.9377 28.4697L33.637 28.3154L34.414 28.2312L34.8172 28.2158L35.6231 28.2388L36.3876 28.334L37.0644 28.4949L37.6181 28.7181L37.8408 28.8538C37.8561 28.8631 37.9113 28.9091 37.9245 28.9212C37.9272 28.9233 37.9677 28.9589 37.9705 28.9616L38.0695 29.047C38.0903 29.0649 38.1088 29.0853 38.1247 29.1077L38.2189 29.2396C38.2392 29.2679 38.2549 29.2993 38.2654 29.3326L38.3354 29.558C38.3425 29.5821 38.3469 29.6069 38.3485 29.6319L38.3617 31.6065L38.405 31.7395C38.4177 31.779 38.4229 31.8206 38.4202 31.8621L38.412 32.0022C38.4099 32.0434 38.3998 32.0839 38.3825 32.1215L38.3196 32.2598C38.3066 32.2888 38.2894 32.3157 38.2687 32.3398L38.1538 32.4738C38.1396 32.4908 38.1236 32.5062 38.1062 32.5197L37.942 32.6483L37.687 32.796L37.3976 32.9208L36.7229 33.1178L35.9443 33.2425L35.1089 33.294L34.2651 33.2688L33.4657 33.1709L32.7577 33.0018L32.1804 32.7687L31.9474 32.627L31.7553 32.4639C31.7357 32.4466 31.7181 32.4272 31.7028 32.4059L31.6059 32.2697C31.5863 32.2416 31.5708 32.2108 31.56 32.1783L31.5151 32.0394C31.5024 31.9993 31.4972 31.9571 31.4998 31.9152L31.5086 31.7751C31.5107 31.7346 31.5206 31.6949 31.5376 31.658L31.56 31.6077V30.5363L27.5909 31.1634L32.0229 34.4107L42.9649 32.6653C43.0283 32.6551 43.0933 32.6611 43.1538 32.6829C43.2143 32.7046 43.2683 32.7413 43.3107 32.7895C43.3485 32.8396 43.3742 32.8976 43.3862 32.9592C43.3878 32.9701 43.3966 33.0341 43.3971 33.045L43.4141 33.6239L43.4382 39.4233L43.4235 39.8221C43.4226 39.8443 43.4194 39.8663 43.4142 39.8878L43.3572 40.0869C43.3293 40.164 43.2822 40.2328 43.2204 40.2867C43.1965 40.3036 43.1715 40.319 43.1455 40.3326C43.0951 40.356 43.0423 40.3735 42.9879 40.3846L42.1228 40.517L32.0825 42.1333H32.0782ZM32.0979 41.4587L32.1089 41.4609L32.2462 41.4483L32.6182 41.3526L42.7538 39.734L42.7663 39.4156L42.7368 33.3832L32.0306 35.0904C31.9261 35.1073 31.8189 35.0864 31.7286 35.0312L27.0854 31.6263L27.1171 37.7446L27.1516 37.877L27.1735 37.8557L32.0979 41.4587ZM26.9611 38.0477L26.9333 38.0959L26.9759 38.0532L26.9611 38.0477ZM32.2281 31.9847L32.3468 32.0886L32.7063 32.2719L33.2551 32.4415L33.9402 32.5619L34.7056 32.6193L35.0985 32.6221L35.8727 32.5744L36.5791 32.4612L37.1618 32.2921L37.57 32.0902L37.7456 31.8856L37.7303 31.8369C37.7131 31.8034 37.7014 31.7674 37.6958 31.7302C37.6942 31.7176 37.6903 31.6783 37.6903 31.6657L37.6411 29.5875L37.5327 29.4726L37.7045 29.175L37.4846 29.4288L37.2986 29.3085L36.862 29.1356L36.2694 28.9955L35.5724 28.909L34.8277 28.8877L34.0906 28.9326L33.4198 29.0409L32.8661 29.2012L32.4787 29.3928L32.2828 29.5826L32.2489 29.657L32.233 29.912L32.2336 30.1309C32.2336 30.1385 32.233 30.1494 32.2319 30.1604L32.2308 31.6782C32.2245 31.7327 32.2122 31.7863 32.1942 31.838L32.1745 31.8933L32.2281 31.9847Z" fill="#FC7C54"/>
<path d="M25.9586 43.1118C25.9353 41.6233 26.0031 39.9136 25.9269 38.4322C25.7261 38.1005 25.2264 37.879 24.9281 37.6164C23.9013 36.8634 22.8626 36.1016 21.8359 35.3485C21.5929 35.1705 21.3198 34.97 21.077 34.7915C20.9395 34.6894 20.7837 34.5433 20.5969 34.5929C19.3022 33.7133 17.0662 33.8287 15.6159 34.266C15.3349 34.318 15.086 34.4794 14.9239 34.7147C14.7618 34.95 14.6997 35.2401 14.7512 35.5211C13.3134 35.7513 11.7628 35.9971 10.3265 36.2269C10.1237 36.2984 9.73704 36.2265 9.62659 36.4383C9.56769 38.5092 9.62176 40.7415 9.61287 42.8148C9.62891 42.953 9.60944 43.2887 9.69705 43.4063C9.80421 43.496 9.95394 43.5966 10.0659 43.6815C10.5035 44.0026 10.9618 44.3386 11.3996 44.6598C12.5557 45.485 13.6845 46.3838 14.8631 47.1683C16.9979 46.9478 19.2199 46.4774 21.3548 46.1761C22.8194 45.8916 24.4563 45.7819 25.8814 45.3965C25.8896 45.3675 25.9143 45.21 25.9425 45.1937C25.9713 44.6152 25.9551 43.6968 25.9586 43.1118ZM20.8729 37.1841L20.8719 37.0909C20.8814 37.1015 20.8731 37.1708 20.8729 37.1841ZM20.8849 37.0745L20.8848 37.0736L20.8951 37.088L20.8849 37.0745ZM20.8801 37.0681L20.8715 37.0567V37.055L20.8801 37.067L20.8801 37.0681ZM14.7497 37.0688C14.749 37.1332 14.7435 37.1976 14.7332 37.2612L14.7416 37.1233L14.6991 37.1806L14.7497 37.0688Z" fill="white"/>
<path d="M9.87836 36.3561L14.7814 35.5715C14.9918 36.3123 14.3128 37.4224 14.9262 37.8311C15.9951 38.3349 18.2636 38.9295 19.0605 37.9936C19.6174 34.7176 17.2812 36.691 15.4144 35.478C13.8495 33.5342 19.7219 33.7481 20.6123 34.6131C26.9582 38.5488 26.0849 38.0736 25.9628 45.2572C22.7254 46.3883 18.6474 46.4396 15.1367 47.2025C15.2269 39.8696 16.0668 40.6168 9.88032 36.402L9.87836 36.3561Z" fill="#FFB7A4"/>
<path d="M14.9779 40.1885L15.137 47.0027L25.6934 45.2384V38.5149L14.9779 40.1885Z" fill="white"/>
<path d="M25.909 38.7277C25.8594 38.7278 25.8103 38.7169 25.7655 38.6957C25.7206 38.6745 25.6811 38.6436 25.6497 38.6051C25.4898 38.4342 25.3076 38.2857 25.1079 38.1635C24.9723 38.0705 24.8366 37.9775 24.714 37.8758L21.0147 35.163C20.96 35.1269 20.9074 35.0878 20.8571 35.0459C20.8051 34.9993 20.7472 34.9599 20.6848 34.9288C20.6294 34.9441 20.5708 34.9439 20.5155 34.9282C20.4601 34.9125 20.4103 34.8818 20.3713 34.8396C20.3196 34.7999 20.2645 34.7649 20.2065 34.7351C20.1291 34.6911 20.0722 34.6182 20.0485 34.5322C20.0248 34.4464 20.0361 34.3546 20.0801 34.2771C20.1241 34.1996 20.1971 34.1428 20.283 34.119C20.3688 34.0954 20.4606 34.1067 20.5381 34.1507C20.595 34.1824 20.6558 34.218 20.7127 34.2563C20.9246 34.2803 21.1227 34.3732 21.2768 34.5205C21.3135 34.5515 21.3518 34.5804 21.3917 34.607L25.1271 37.3461C25.2503 37.4468 25.369 37.5272 25.4877 37.6087C25.7407 37.7651 25.9699 37.9569 26.1684 38.1783C26.1965 38.2124 26.2175 38.2516 26.2304 38.2938C26.2433 38.336 26.2477 38.3803 26.2434 38.4242C26.2392 38.4681 26.2263 38.5108 26.2056 38.5497C26.1848 38.5886 26.1565 38.6231 26.1224 38.6511C26.0625 38.7009 25.987 38.728 25.909 38.7277Z" fill="#FC7C54"/>
<path d="M17.7645 36.3734C17.6315 36.3734 17.5057 36.3707 17.3891 36.3652C15.5309 36.2837 14.4356 35.736 14.4591 34.9005C14.4589 34.8559 14.4679 34.8118 14.4854 34.7708C14.5029 34.7299 14.5287 34.693 14.561 34.6624C14.5934 34.6318 14.6316 34.6081 14.6735 34.5929C14.7154 34.5777 14.7598 34.5712 14.8043 34.5738C14.8484 34.575 14.8919 34.5849 14.9322 34.6029C14.9725 34.6209 15.0089 34.6467 15.0392 34.6787C15.0696 34.7107 15.0933 34.7485 15.109 34.7897C15.1248 34.831 15.1322 34.8749 15.131 34.919C15.1222 35.2429 15.9938 35.6309 17.4186 35.6938C19.1296 35.7606 20.4833 35.347 20.5084 34.9344C20.5107 34.8902 20.5216 34.8469 20.5408 34.807C20.56 34.7671 20.5869 34.7314 20.62 34.7021C20.6532 34.6727 20.6918 34.6503 20.7337 34.636C20.7756 34.6218 20.8199 34.6161 20.8641 34.6192C20.9531 34.6246 21.0362 34.6651 21.0953 34.7318C21.1544 34.7985 21.1846 34.8859 21.1793 34.9749C21.113 36.0911 19.0924 36.3734 17.7645 36.3734Z" fill="#FC7C54"/>
<path d="M14.9831 47.5193C14.8613 47.5211 14.7411 47.4922 14.6335 47.435L14.5503 47.3781C12.8771 46.1651 11.147 44.911 9.47597 43.6493C9.42982 43.6145 9.3934 43.5683 9.37029 43.5153C9.34718 43.4623 9.33821 43.4042 9.34409 43.3467C9.26747 42.6183 9.2452 41.8853 9.27735 41.1537C9.28505 40.7143 9.29325 40.2837 9.27735 39.8914C9.28996 39.452 9.2812 38.9952 9.27301 38.5301C9.24464 37.8016 9.25837 37.0721 9.31405 36.3453C9.32091 36.2812 9.34592 36.2203 9.38619 36.17C9.42639 36.1196 9.4801 36.0817 9.54111 36.0607C9.70037 35.9819 9.87455 35.9375 10.0522 35.9305C10.1131 35.9265 10.1737 35.9178 10.2333 35.9043C10.9889 35.7856 11.7297 35.6662 12.4711 35.5475C13.1256 35.4419 13.7799 35.3368 14.4162 35.2384C14.4076 35.0684 14.4385 34.8988 14.5066 34.7429C14.5747 34.587 14.678 34.4491 14.8086 34.3399C15.9199 33.5865 17.5214 33.4048 19.588 33.7895L19.6991 33.8196C20.1981 33.9629 20.9526 34.1791 21.1644 34.8537C21.2226 35.2652 21.2398 35.6814 21.2158 36.0963C21.1985 36.4194 21.2048 36.7432 21.235 37.0653C21.2631 37.1846 21.2647 37.3086 21.2398 37.4285C21.2148 37.5485 21.1639 37.6615 21.0905 37.7597C20.6358 38.3966 19.3303 38.5799 18.3881 38.6625C18.3793 38.6631 18.3241 38.6641 18.3159 38.6641C17.1313 38.6822 15.3426 38.703 14.4781 37.6765C14.4595 37.6541 14.4436 37.6295 14.431 37.6032C14.3866 37.5066 14.362 37.4021 14.3592 37.2958C14.3562 37.1895 14.3749 37.0837 14.4141 36.9849C14.4157 36.6861 14.4157 36.3638 14.4152 36.0492V35.919C13.8127 36.0126 13.195 36.1116 12.5778 36.2112C11.8589 36.3266 11.1405 36.4421 10.4472 36.5488C11.3237 37.1939 12.2019 37.8383 13.0818 38.4819L14.8743 39.7956C18.5162 39.2168 22.2057 38.628 25.8459 38.0458C25.8922 38.0385 25.9395 38.041 25.9848 38.0531C26.0301 38.0652 26.0724 38.0865 26.1091 38.1159C26.1456 38.1453 26.1757 38.182 26.1972 38.2236C26.2188 38.2652 26.2314 38.3109 26.2343 38.3578C26.2907 39.2972 26.2813 40.3313 26.2726 41.331C26.2666 41.9498 26.2611 42.5615 26.271 43.1393C26.2595 43.3872 26.271 43.6493 26.2825 43.9212C26.3322 44.4433 26.3063 44.9697 26.2058 45.4844C26.1893 45.5459 26.1557 45.6013 26.1089 45.6444C26.0622 45.6875 26.0041 45.7165 25.9416 45.7279C24.3329 46.0196 22.6575 46.2795 21.0363 46.5311C19.93 46.703 18.8258 46.8742 17.7392 47.0559C17.4612 47.1046 17.1608 47.15 16.8566 47.196C16.3527 47.2725 15.8323 47.3513 15.3771 47.4503C15.2497 47.4921 15.117 47.5153 14.9831 47.5193ZM10.0034 43.205C11.6312 44.4316 13.3154 45.6524 14.9448 46.8337L14.9913 46.8676C15.0001 46.8599 15.1598 46.814 15.2123 46.7992C15.7102 46.6898 16.2415 46.6093 16.7559 46.5311C17.0552 46.4857 17.3501 46.4414 17.6259 46.3932C18.7174 46.2105 19.8244 46.0387 20.9335 45.8669C22.4748 45.6272 24.0659 45.3804 25.5974 45.1063C25.6348 44.7219 25.6392 44.3349 25.6105 43.9497C25.5985 43.6558 25.587 43.3779 25.5991 43.1283C25.5886 42.5675 25.5941 41.9498 25.6002 41.3249C25.6078 40.4681 25.616 39.5861 25.5821 38.7692C22.0152 39.3393 18.4051 39.9154 14.8409 40.4818C14.7521 40.4955 14.6617 40.4734 14.5892 40.4205L12.6845 39.0241C11.7702 38.3544 10.8565 37.6839 9.94325 37.0128C9.9263 37.4937 9.93562 38.0119 9.94493 38.518C9.95369 38.994 9.96244 39.4624 9.94928 39.8886C9.96517 40.2689 9.95747 40.7127 9.94984 41.1657C9.92084 41.8458 9.9387 42.5272 10.0034 43.205ZM15.0324 37.2885C15.7152 38.0256 17.2724 38.0048 18.3071 37.9922C19.971 37.8488 20.4207 37.5402 20.5433 37.369C20.5628 37.3435 20.5759 37.3137 20.5815 37.282C20.587 37.2504 20.5848 37.2179 20.5751 37.1873C20.5348 36.8189 20.5244 36.4478 20.5438 36.0777C20.5651 35.7203 20.5542 35.3618 20.5116 35.0063C20.4197 34.7256 19.9174 34.5818 19.5135 34.4658L19.4331 34.4428C17.5782 34.1008 16.1447 34.2458 15.2009 34.8854C15.0925 34.9686 15.0849 35.1568 15.0871 35.4545V35.5114L15.0876 36.0481C15.0882 36.3907 15.0882 36.7419 15.086 37.0625C15.0858 37.1197 15.0709 37.1758 15.0428 37.2256C15.0335 37.2452 15.0299 37.267 15.0324 37.2885Z" fill="#FC7C54"/>
</g>
</g>
<defs>
<clipPath id="clip0_2_545">
<rect width="44.1227" height="46.9242" fill="white" transform="translate(0.924194 0.350098)"/>
</clipPath>
</defs>
</svg>
